M48
;DRILL file {Pcbnew (2012-apr-16-27)-stable} date Sa 15 Jun 2013 13:27:19 CEST
;FORMAT={-:-/ absolute / metric / decimal}
FMAT,2
METRIC,TZ
T1C0.635
T2C0.813
T3C1.016
%
G90
G05
M71
T1
X167.000Y-94.501
X168.001Y-100.500
T2
X135.979Y-54.501
X135.979Y-61.501
X135.979Y-68.501
X135.979Y-75.499
X135.979Y-82.499
X135.979Y-89.499
X135.979Y-96.500
X135.979Y-103.500
X138.519Y-54.501
X138.519Y-61.501
X138.519Y-68.501
X138.519Y-75.499
X138.519Y-82.499
X138.519Y-89.499
X138.519Y-96.500
X138.519Y-103.500
X143.690Y-54.501
X143.690Y-61.501
X143.690Y-68.501
X143.690Y-75.499
X143.690Y-82.499
X143.690Y-89.499
X143.690Y-96.500
X143.690Y-103.500
X143.690Y-111.999
X151.310Y-54.501
X151.310Y-61.501
X151.310Y-68.501
X151.310Y-75.499
X151.310Y-82.499
X151.310Y-89.499
X151.310Y-96.500
X151.310Y-103.500
X151.310Y-111.999
X158.501Y-80.231
X158.501Y-82.771
X158.501Y-87.191
X158.501Y-94.811
X163.190Y-62.489
X163.190Y-65.029
X163.190Y-67.569
X163.190Y-70.109
X163.190Y-72.649
X163.190Y-75.189
X163.190Y-77.729
X163.190Y-80.269
X163.190Y-82.809
X163.190Y-85.349
X163.190Y-87.889
X163.190Y-90.429
X163.190Y-92.969
X163.190Y-95.509
X170.810Y-62.489
X170.810Y-65.029
X170.810Y-67.569
X170.810Y-70.109
X170.810Y-72.649
X170.810Y-75.189
X170.810Y-77.729
X170.810Y-80.269
X170.810Y-82.809
X170.810Y-85.349
X170.810Y-87.889
X170.810Y-90.429
X170.810Y-92.969
X170.810Y-95.509
T3
X136.230Y-111.999
X138.770Y-111.999
X162.690Y-105.499
X165.230Y-105.499
X167.770Y-105.499
X170.310Y-105.499
T0
M30
