G04 (created by PCBNEW-RS274X (2012-apr-16-27)-stable) date Sa 15 Jun 2013 15:32:55 CEST*
G01*
G70*
G90*
%MOIN*%
G04 Gerber Fmt 3.4, Leading zero omitted, Abs format*
%FSLAX34Y34*%
G04 APERTURE LIST*
%ADD10C,0.006000*%
%ADD11C,0.075000*%
%ADD12R,0.080000X0.080000*%
%ADD13C,0.080000*%
%ADD14C,0.086000*%
%ADD15O,0.110000X0.082000*%
%ADD16R,0.110000X0.082000*%
G04 APERTURE END LIST*
G54D10*
G54D11*
X56571Y-40748D03*
X59571Y-40748D03*
X56571Y-37992D03*
X59571Y-37992D03*
X56571Y-35236D03*
X59571Y-35236D03*
X56571Y-32480D03*
X59571Y-32480D03*
X56571Y-29724D03*
X59571Y-29724D03*
X56571Y-26969D03*
X59571Y-26969D03*
X56571Y-24213D03*
X59571Y-24213D03*
X56571Y-21457D03*
X59571Y-21457D03*
X62402Y-37327D03*
X62402Y-34327D03*
X56571Y-44094D03*
X59571Y-44094D03*
G54D12*
X67051Y-41535D03*
G54D13*
X66051Y-41535D03*
X65051Y-41535D03*
X64051Y-41535D03*
G54D12*
X54634Y-44094D03*
G54D13*
X53634Y-44094D03*
G54D14*
X53535Y-40748D03*
X54535Y-40748D03*
X53535Y-37992D03*
X54535Y-37992D03*
X53535Y-35236D03*
X54535Y-35236D03*
X53535Y-32480D03*
X54535Y-32480D03*
X53535Y-29724D03*
X54535Y-29724D03*
X53535Y-26969D03*
X54535Y-26969D03*
X53535Y-24213D03*
X54535Y-24213D03*
X53535Y-21457D03*
X54535Y-21457D03*
G54D15*
X64248Y-25602D03*
X64248Y-26602D03*
X64248Y-27602D03*
X64248Y-28602D03*
X64248Y-29602D03*
X64248Y-30602D03*
X64248Y-31602D03*
X64248Y-32602D03*
X64248Y-33602D03*
X64248Y-34602D03*
X64248Y-35602D03*
X64248Y-36602D03*
X64248Y-37602D03*
G54D16*
X64248Y-24602D03*
G54D15*
X67248Y-37602D03*
X67248Y-36602D03*
X67248Y-35602D03*
X67248Y-34602D03*
X67248Y-33602D03*
X67248Y-32602D03*
X67248Y-31602D03*
X67248Y-30602D03*
X67248Y-29602D03*
X67248Y-28602D03*
X67248Y-27602D03*
X67248Y-26602D03*
X67248Y-25602D03*
X67248Y-24602D03*
G54D11*
X62402Y-32587D03*
X62402Y-31587D03*
M02*
