G04 (created by PCBNEW-RS274X (2012-apr-16-27)-stable) date Sa 15 Jun 2013 15:32:55 CEST*
G01*
G70*
G90*
%MOIN*%
G04 Gerber Fmt 3.4, Leading zero omitted, Abs format*
%FSLAX34Y34*%
G04 APERTURE LIST*
%ADD10C,0.006000*%
%ADD11C,0.008000*%
%ADD12C,0.010000*%
%ADD13C,0.003000*%
%ADD14C,0.015000*%
%ADD15C,0.012000*%
%ADD16C,0.003500*%
%ADD17C,0.011300*%
G04 APERTURE END LIST*
G54D10*
G54D11*
X56571Y-40748D02*
X56771Y-40748D01*
X59571Y-40748D02*
X59371Y-40748D01*
X59371Y-40748D02*
X59371Y-40348D01*
X59371Y-40348D02*
X56771Y-40348D01*
X56771Y-40348D02*
X56771Y-41148D01*
X56771Y-41148D02*
X59371Y-41148D01*
X59371Y-41148D02*
X59371Y-40748D01*
X56771Y-40548D02*
X56971Y-40348D01*
X56571Y-37992D02*
X56771Y-37992D01*
X59571Y-37992D02*
X59371Y-37992D01*
X59371Y-37992D02*
X59371Y-37592D01*
X59371Y-37592D02*
X56771Y-37592D01*
X56771Y-37592D02*
X56771Y-38392D01*
X56771Y-38392D02*
X59371Y-38392D01*
X59371Y-38392D02*
X59371Y-37992D01*
X56771Y-37792D02*
X56971Y-37592D01*
X56571Y-35236D02*
X56771Y-35236D01*
X59571Y-35236D02*
X59371Y-35236D01*
X59371Y-35236D02*
X59371Y-34836D01*
X59371Y-34836D02*
X56771Y-34836D01*
X56771Y-34836D02*
X56771Y-35636D01*
X56771Y-35636D02*
X59371Y-35636D01*
X59371Y-35636D02*
X59371Y-35236D01*
X56771Y-35036D02*
X56971Y-34836D01*
X56571Y-32480D02*
X56771Y-32480D01*
X59571Y-32480D02*
X59371Y-32480D01*
X59371Y-32480D02*
X59371Y-32080D01*
X59371Y-32080D02*
X56771Y-32080D01*
X56771Y-32080D02*
X56771Y-32880D01*
X56771Y-32880D02*
X59371Y-32880D01*
X59371Y-32880D02*
X59371Y-32480D01*
X56771Y-32280D02*
X56971Y-32080D01*
X56571Y-29724D02*
X56771Y-29724D01*
X59571Y-29724D02*
X59371Y-29724D01*
X59371Y-29724D02*
X59371Y-29324D01*
X59371Y-29324D02*
X56771Y-29324D01*
X56771Y-29324D02*
X56771Y-30124D01*
X56771Y-30124D02*
X59371Y-30124D01*
X59371Y-30124D02*
X59371Y-29724D01*
X56771Y-29524D02*
X56971Y-29324D01*
X56571Y-26969D02*
X56771Y-26969D01*
X59571Y-26969D02*
X59371Y-26969D01*
X59371Y-26969D02*
X59371Y-26569D01*
X59371Y-26569D02*
X56771Y-26569D01*
X56771Y-26569D02*
X56771Y-27369D01*
X56771Y-27369D02*
X59371Y-27369D01*
X59371Y-27369D02*
X59371Y-26969D01*
X56771Y-26769D02*
X56971Y-26569D01*
X56571Y-24213D02*
X56771Y-24213D01*
X59571Y-24213D02*
X59371Y-24213D01*
X59371Y-24213D02*
X59371Y-23813D01*
X59371Y-23813D02*
X56771Y-23813D01*
X56771Y-23813D02*
X56771Y-24613D01*
X56771Y-24613D02*
X59371Y-24613D01*
X59371Y-24613D02*
X59371Y-24213D01*
X56771Y-24013D02*
X56971Y-23813D01*
X56571Y-21457D02*
X56771Y-21457D01*
X59571Y-21457D02*
X59371Y-21457D01*
X59371Y-21457D02*
X59371Y-21057D01*
X59371Y-21057D02*
X56771Y-21057D01*
X56771Y-21057D02*
X56771Y-21857D01*
X56771Y-21857D02*
X59371Y-21857D01*
X59371Y-21857D02*
X59371Y-21457D01*
X56771Y-21257D02*
X56971Y-21057D01*
X62402Y-37327D02*
X62402Y-37127D01*
X62402Y-34327D02*
X62402Y-34527D01*
X62402Y-34527D02*
X62002Y-34527D01*
X62002Y-34527D02*
X62002Y-37127D01*
X62002Y-37127D02*
X62802Y-37127D01*
X62802Y-37127D02*
X62802Y-34527D01*
X62802Y-34527D02*
X62402Y-34527D01*
X62202Y-37127D02*
X62002Y-36927D01*
X56571Y-44094D02*
X56771Y-44094D01*
X59571Y-44094D02*
X59371Y-44094D01*
X59371Y-44094D02*
X59371Y-43694D01*
X59371Y-43694D02*
X56771Y-43694D01*
X56771Y-43694D02*
X56771Y-44494D01*
X56771Y-44494D02*
X59371Y-44494D01*
X59371Y-44494D02*
X59371Y-44094D01*
X56771Y-43894D02*
X56971Y-43694D01*
G54D12*
X63551Y-41035D02*
X67551Y-41035D01*
X63551Y-42035D02*
X67551Y-42035D01*
X67551Y-42035D02*
X67551Y-41035D01*
X63551Y-41035D02*
X63551Y-42035D01*
G54D10*
X55134Y-43594D02*
X55134Y-44594D01*
X55134Y-44594D02*
X53134Y-44594D01*
X53134Y-44594D02*
X53134Y-43594D01*
X53134Y-43594D02*
X55134Y-43594D01*
G54D11*
X55155Y-41498D02*
X55155Y-39998D01*
G54D13*
X54842Y-40748D02*
X54828Y-40885D01*
X54788Y-41017D01*
X54723Y-41139D01*
X54636Y-41246D01*
X54530Y-41334D01*
X54408Y-41399D01*
X54277Y-41440D01*
X54139Y-41454D01*
X54003Y-41442D01*
X53871Y-41403D01*
X53748Y-41339D01*
X53641Y-41253D01*
X53552Y-41147D01*
X53486Y-41026D01*
X53444Y-40894D01*
X53429Y-40757D01*
X53440Y-40621D01*
X53478Y-40488D01*
X53541Y-40366D01*
X53627Y-40257D01*
X53732Y-40168D01*
X53852Y-40101D01*
X53984Y-40058D01*
X54121Y-40042D01*
X54257Y-40052D01*
X54390Y-40089D01*
X54513Y-40152D01*
X54622Y-40237D01*
X54712Y-40341D01*
X54780Y-40461D01*
X54824Y-40592D01*
X54841Y-40729D01*
X54842Y-40748D01*
G54D12*
X55134Y-39998D02*
X55065Y-39914D01*
X54989Y-39836D01*
X54906Y-39765D01*
X54817Y-39701D01*
X54723Y-39646D01*
X54625Y-39599D01*
X54523Y-39560D01*
X54418Y-39531D01*
X54311Y-39511D01*
X54202Y-39500D01*
X54094Y-39499D01*
X53985Y-39508D01*
X53878Y-39525D01*
X53772Y-39552D01*
X53669Y-39589D01*
X53570Y-39634D01*
X53475Y-39687D01*
X53385Y-39749D01*
X53301Y-39818D01*
X53223Y-39894D01*
X53152Y-39977D01*
X53088Y-40066D01*
X53033Y-40160D01*
X52986Y-40258D01*
X52947Y-40360D01*
X52918Y-40465D01*
X52898Y-40572D01*
X52887Y-40681D01*
X52886Y-40789D01*
X52895Y-40898D01*
X52912Y-41005D01*
X52939Y-41111D01*
X52976Y-41214D01*
X53021Y-41313D01*
X53074Y-41408D01*
X53136Y-41498D01*
X53205Y-41582D01*
X53281Y-41660D01*
X53364Y-41731D01*
X53453Y-41795D01*
X53547Y-41850D01*
X53645Y-41897D01*
X53747Y-41936D01*
X53852Y-41965D01*
X53959Y-41985D01*
X54068Y-41996D01*
X54176Y-41997D01*
X54285Y-41988D01*
X54392Y-41971D01*
X54498Y-41944D01*
X54601Y-41907D01*
X54700Y-41862D01*
X54795Y-41809D01*
X54885Y-41747D01*
X54969Y-41678D01*
X55047Y-41602D01*
X55118Y-41519D01*
X55134Y-41498D01*
G54D10*
X54135Y-40298D02*
X54096Y-40300D01*
X54057Y-40305D01*
X54019Y-40314D01*
X53982Y-40326D01*
X53945Y-40341D01*
X53911Y-40359D01*
X53877Y-40380D01*
X53846Y-40404D01*
X53817Y-40430D01*
X53791Y-40459D01*
X53767Y-40490D01*
X53746Y-40524D01*
X53728Y-40558D01*
X53713Y-40595D01*
X53701Y-40632D01*
X53692Y-40670D01*
X53687Y-40709D01*
X53685Y-40748D01*
X54135Y-41198D02*
X54174Y-41196D01*
X54213Y-41191D01*
X54251Y-41182D01*
X54288Y-41170D01*
X54325Y-41155D01*
X54360Y-41137D01*
X54393Y-41116D01*
X54424Y-41092D01*
X54453Y-41066D01*
X54479Y-41037D01*
X54503Y-41006D01*
X54524Y-40972D01*
X54542Y-40938D01*
X54557Y-40901D01*
X54569Y-40864D01*
X54578Y-40826D01*
X54583Y-40787D01*
X54585Y-40748D01*
X54135Y-40098D02*
X54079Y-40101D01*
X54023Y-40108D01*
X53967Y-40121D01*
X53913Y-40138D01*
X53861Y-40159D01*
X53811Y-40186D01*
X53763Y-40216D01*
X53718Y-40251D01*
X53676Y-40289D01*
X53638Y-40331D01*
X53603Y-40376D01*
X53573Y-40424D01*
X53546Y-40474D01*
X53525Y-40526D01*
X53508Y-40580D01*
X53495Y-40636D01*
X53488Y-40692D01*
X53485Y-40748D01*
X54135Y-41398D02*
X54191Y-41395D01*
X54247Y-41388D01*
X54303Y-41375D01*
X54357Y-41358D01*
X54409Y-41337D01*
X54460Y-41310D01*
X54507Y-41280D01*
X54552Y-41245D01*
X54594Y-41207D01*
X54632Y-41165D01*
X54667Y-41120D01*
X54697Y-41072D01*
X54724Y-41022D01*
X54745Y-40970D01*
X54762Y-40916D01*
X54775Y-40860D01*
X54782Y-40804D01*
X54785Y-40748D01*
X54135Y-39898D02*
X54061Y-39902D01*
X53988Y-39911D01*
X53916Y-39927D01*
X53845Y-39950D01*
X53776Y-39978D01*
X53711Y-40012D01*
X53648Y-40052D01*
X53589Y-40097D01*
X53534Y-40147D01*
X53484Y-40202D01*
X53439Y-40261D01*
X53399Y-40324D01*
X53365Y-40389D01*
X53337Y-40458D01*
X53314Y-40529D01*
X53298Y-40601D01*
X53289Y-40674D01*
X53285Y-40748D01*
X54135Y-41598D02*
X54209Y-41594D01*
X54282Y-41585D01*
X54354Y-41569D01*
X54425Y-41546D01*
X54494Y-41518D01*
X54560Y-41484D01*
X54622Y-41444D01*
X54681Y-41399D01*
X54736Y-41349D01*
X54786Y-41294D01*
X54831Y-41235D01*
X54871Y-41172D01*
X54905Y-41107D01*
X54933Y-41038D01*
X54956Y-40967D01*
X54972Y-40895D01*
X54981Y-40822D01*
X54985Y-40748D01*
G54D11*
X55155Y-38742D02*
X55155Y-37242D01*
G54D13*
X54842Y-37992D02*
X54828Y-38129D01*
X54788Y-38261D01*
X54723Y-38383D01*
X54636Y-38490D01*
X54530Y-38578D01*
X54408Y-38643D01*
X54277Y-38684D01*
X54139Y-38698D01*
X54003Y-38686D01*
X53871Y-38647D01*
X53748Y-38583D01*
X53641Y-38497D01*
X53552Y-38391D01*
X53486Y-38270D01*
X53444Y-38138D01*
X53429Y-38001D01*
X53440Y-37865D01*
X53478Y-37732D01*
X53541Y-37610D01*
X53627Y-37501D01*
X53732Y-37412D01*
X53852Y-37345D01*
X53984Y-37302D01*
X54121Y-37286D01*
X54257Y-37296D01*
X54390Y-37333D01*
X54513Y-37396D01*
X54622Y-37481D01*
X54712Y-37585D01*
X54780Y-37705D01*
X54824Y-37836D01*
X54841Y-37973D01*
X54842Y-37992D01*
G54D12*
X55134Y-37242D02*
X55065Y-37158D01*
X54989Y-37080D01*
X54906Y-37009D01*
X54817Y-36945D01*
X54723Y-36890D01*
X54625Y-36843D01*
X54523Y-36804D01*
X54418Y-36775D01*
X54311Y-36755D01*
X54202Y-36744D01*
X54094Y-36743D01*
X53985Y-36752D01*
X53878Y-36769D01*
X53772Y-36796D01*
X53669Y-36833D01*
X53570Y-36878D01*
X53475Y-36931D01*
X53385Y-36993D01*
X53301Y-37062D01*
X53223Y-37138D01*
X53152Y-37221D01*
X53088Y-37310D01*
X53033Y-37404D01*
X52986Y-37502D01*
X52947Y-37604D01*
X52918Y-37709D01*
X52898Y-37816D01*
X52887Y-37925D01*
X52886Y-38033D01*
X52895Y-38142D01*
X52912Y-38249D01*
X52939Y-38355D01*
X52976Y-38458D01*
X53021Y-38557D01*
X53074Y-38652D01*
X53136Y-38742D01*
X53205Y-38826D01*
X53281Y-38904D01*
X53364Y-38975D01*
X53453Y-39039D01*
X53547Y-39094D01*
X53645Y-39141D01*
X53747Y-39180D01*
X53852Y-39209D01*
X53959Y-39229D01*
X54068Y-39240D01*
X54176Y-39241D01*
X54285Y-39232D01*
X54392Y-39215D01*
X54498Y-39188D01*
X54601Y-39151D01*
X54700Y-39106D01*
X54795Y-39053D01*
X54885Y-38991D01*
X54969Y-38922D01*
X55047Y-38846D01*
X55118Y-38763D01*
X55134Y-38742D01*
G54D10*
X54135Y-37542D02*
X54096Y-37544D01*
X54057Y-37549D01*
X54019Y-37558D01*
X53982Y-37570D01*
X53945Y-37585D01*
X53911Y-37603D01*
X53877Y-37624D01*
X53846Y-37648D01*
X53817Y-37674D01*
X53791Y-37703D01*
X53767Y-37734D01*
X53746Y-37768D01*
X53728Y-37802D01*
X53713Y-37839D01*
X53701Y-37876D01*
X53692Y-37914D01*
X53687Y-37953D01*
X53685Y-37992D01*
X54135Y-38442D02*
X54174Y-38440D01*
X54213Y-38435D01*
X54251Y-38426D01*
X54288Y-38414D01*
X54325Y-38399D01*
X54360Y-38381D01*
X54393Y-38360D01*
X54424Y-38336D01*
X54453Y-38310D01*
X54479Y-38281D01*
X54503Y-38250D01*
X54524Y-38216D01*
X54542Y-38182D01*
X54557Y-38145D01*
X54569Y-38108D01*
X54578Y-38070D01*
X54583Y-38031D01*
X54585Y-37992D01*
X54135Y-37342D02*
X54079Y-37345D01*
X54023Y-37352D01*
X53967Y-37365D01*
X53913Y-37382D01*
X53861Y-37403D01*
X53811Y-37430D01*
X53763Y-37460D01*
X53718Y-37495D01*
X53676Y-37533D01*
X53638Y-37575D01*
X53603Y-37620D01*
X53573Y-37668D01*
X53546Y-37718D01*
X53525Y-37770D01*
X53508Y-37824D01*
X53495Y-37880D01*
X53488Y-37936D01*
X53485Y-37992D01*
X54135Y-38642D02*
X54191Y-38639D01*
X54247Y-38632D01*
X54303Y-38619D01*
X54357Y-38602D01*
X54409Y-38581D01*
X54460Y-38554D01*
X54507Y-38524D01*
X54552Y-38489D01*
X54594Y-38451D01*
X54632Y-38409D01*
X54667Y-38364D01*
X54697Y-38316D01*
X54724Y-38266D01*
X54745Y-38214D01*
X54762Y-38160D01*
X54775Y-38104D01*
X54782Y-38048D01*
X54785Y-37992D01*
X54135Y-37142D02*
X54061Y-37146D01*
X53988Y-37155D01*
X53916Y-37171D01*
X53845Y-37194D01*
X53776Y-37222D01*
X53711Y-37256D01*
X53648Y-37296D01*
X53589Y-37341D01*
X53534Y-37391D01*
X53484Y-37446D01*
X53439Y-37505D01*
X53399Y-37568D01*
X53365Y-37633D01*
X53337Y-37702D01*
X53314Y-37773D01*
X53298Y-37845D01*
X53289Y-37918D01*
X53285Y-37992D01*
X54135Y-38842D02*
X54209Y-38838D01*
X54282Y-38829D01*
X54354Y-38813D01*
X54425Y-38790D01*
X54494Y-38762D01*
X54560Y-38728D01*
X54622Y-38688D01*
X54681Y-38643D01*
X54736Y-38593D01*
X54786Y-38538D01*
X54831Y-38479D01*
X54871Y-38416D01*
X54905Y-38351D01*
X54933Y-38282D01*
X54956Y-38211D01*
X54972Y-38139D01*
X54981Y-38066D01*
X54985Y-37992D01*
G54D11*
X55155Y-35986D02*
X55155Y-34486D01*
G54D13*
X54842Y-35236D02*
X54828Y-35373D01*
X54788Y-35505D01*
X54723Y-35627D01*
X54636Y-35734D01*
X54530Y-35822D01*
X54408Y-35887D01*
X54277Y-35928D01*
X54139Y-35942D01*
X54003Y-35930D01*
X53871Y-35891D01*
X53748Y-35827D01*
X53641Y-35741D01*
X53552Y-35635D01*
X53486Y-35514D01*
X53444Y-35382D01*
X53429Y-35245D01*
X53440Y-35109D01*
X53478Y-34976D01*
X53541Y-34854D01*
X53627Y-34745D01*
X53732Y-34656D01*
X53852Y-34589D01*
X53984Y-34546D01*
X54121Y-34530D01*
X54257Y-34540D01*
X54390Y-34577D01*
X54513Y-34640D01*
X54622Y-34725D01*
X54712Y-34829D01*
X54780Y-34949D01*
X54824Y-35080D01*
X54841Y-35217D01*
X54842Y-35236D01*
G54D12*
X55134Y-34486D02*
X55065Y-34402D01*
X54989Y-34324D01*
X54906Y-34253D01*
X54817Y-34189D01*
X54723Y-34134D01*
X54625Y-34087D01*
X54523Y-34048D01*
X54418Y-34019D01*
X54311Y-33999D01*
X54202Y-33988D01*
X54094Y-33987D01*
X53985Y-33996D01*
X53878Y-34013D01*
X53772Y-34040D01*
X53669Y-34077D01*
X53570Y-34122D01*
X53475Y-34175D01*
X53385Y-34237D01*
X53301Y-34306D01*
X53223Y-34382D01*
X53152Y-34465D01*
X53088Y-34554D01*
X53033Y-34648D01*
X52986Y-34746D01*
X52947Y-34848D01*
X52918Y-34953D01*
X52898Y-35060D01*
X52887Y-35169D01*
X52886Y-35277D01*
X52895Y-35386D01*
X52912Y-35493D01*
X52939Y-35599D01*
X52976Y-35702D01*
X53021Y-35801D01*
X53074Y-35896D01*
X53136Y-35986D01*
X53205Y-36070D01*
X53281Y-36148D01*
X53364Y-36219D01*
X53453Y-36283D01*
X53547Y-36338D01*
X53645Y-36385D01*
X53747Y-36424D01*
X53852Y-36453D01*
X53959Y-36473D01*
X54068Y-36484D01*
X54176Y-36485D01*
X54285Y-36476D01*
X54392Y-36459D01*
X54498Y-36432D01*
X54601Y-36395D01*
X54700Y-36350D01*
X54795Y-36297D01*
X54885Y-36235D01*
X54969Y-36166D01*
X55047Y-36090D01*
X55118Y-36007D01*
X55134Y-35986D01*
G54D10*
X54135Y-34786D02*
X54096Y-34788D01*
X54057Y-34793D01*
X54019Y-34802D01*
X53982Y-34814D01*
X53945Y-34829D01*
X53911Y-34847D01*
X53877Y-34868D01*
X53846Y-34892D01*
X53817Y-34918D01*
X53791Y-34947D01*
X53767Y-34978D01*
X53746Y-35012D01*
X53728Y-35046D01*
X53713Y-35083D01*
X53701Y-35120D01*
X53692Y-35158D01*
X53687Y-35197D01*
X53685Y-35236D01*
X54135Y-35686D02*
X54174Y-35684D01*
X54213Y-35679D01*
X54251Y-35670D01*
X54288Y-35658D01*
X54325Y-35643D01*
X54360Y-35625D01*
X54393Y-35604D01*
X54424Y-35580D01*
X54453Y-35554D01*
X54479Y-35525D01*
X54503Y-35494D01*
X54524Y-35460D01*
X54542Y-35426D01*
X54557Y-35389D01*
X54569Y-35352D01*
X54578Y-35314D01*
X54583Y-35275D01*
X54585Y-35236D01*
X54135Y-34586D02*
X54079Y-34589D01*
X54023Y-34596D01*
X53967Y-34609D01*
X53913Y-34626D01*
X53861Y-34647D01*
X53811Y-34674D01*
X53763Y-34704D01*
X53718Y-34739D01*
X53676Y-34777D01*
X53638Y-34819D01*
X53603Y-34864D01*
X53573Y-34912D01*
X53546Y-34962D01*
X53525Y-35014D01*
X53508Y-35068D01*
X53495Y-35124D01*
X53488Y-35180D01*
X53485Y-35236D01*
X54135Y-35886D02*
X54191Y-35883D01*
X54247Y-35876D01*
X54303Y-35863D01*
X54357Y-35846D01*
X54409Y-35825D01*
X54460Y-35798D01*
X54507Y-35768D01*
X54552Y-35733D01*
X54594Y-35695D01*
X54632Y-35653D01*
X54667Y-35608D01*
X54697Y-35560D01*
X54724Y-35510D01*
X54745Y-35458D01*
X54762Y-35404D01*
X54775Y-35348D01*
X54782Y-35292D01*
X54785Y-35236D01*
X54135Y-34386D02*
X54061Y-34390D01*
X53988Y-34399D01*
X53916Y-34415D01*
X53845Y-34438D01*
X53776Y-34466D01*
X53711Y-34500D01*
X53648Y-34540D01*
X53589Y-34585D01*
X53534Y-34635D01*
X53484Y-34690D01*
X53439Y-34749D01*
X53399Y-34812D01*
X53365Y-34877D01*
X53337Y-34946D01*
X53314Y-35017D01*
X53298Y-35089D01*
X53289Y-35162D01*
X53285Y-35236D01*
X54135Y-36086D02*
X54209Y-36082D01*
X54282Y-36073D01*
X54354Y-36057D01*
X54425Y-36034D01*
X54494Y-36006D01*
X54560Y-35972D01*
X54622Y-35932D01*
X54681Y-35887D01*
X54736Y-35837D01*
X54786Y-35782D01*
X54831Y-35723D01*
X54871Y-35660D01*
X54905Y-35595D01*
X54933Y-35526D01*
X54956Y-35455D01*
X54972Y-35383D01*
X54981Y-35310D01*
X54985Y-35236D01*
G54D11*
X55155Y-33230D02*
X55155Y-31730D01*
G54D13*
X54842Y-32480D02*
X54828Y-32617D01*
X54788Y-32749D01*
X54723Y-32871D01*
X54636Y-32978D01*
X54530Y-33066D01*
X54408Y-33131D01*
X54277Y-33172D01*
X54139Y-33186D01*
X54003Y-33174D01*
X53871Y-33135D01*
X53748Y-33071D01*
X53641Y-32985D01*
X53552Y-32879D01*
X53486Y-32758D01*
X53444Y-32626D01*
X53429Y-32489D01*
X53440Y-32353D01*
X53478Y-32220D01*
X53541Y-32098D01*
X53627Y-31989D01*
X53732Y-31900D01*
X53852Y-31833D01*
X53984Y-31790D01*
X54121Y-31774D01*
X54257Y-31784D01*
X54390Y-31821D01*
X54513Y-31884D01*
X54622Y-31969D01*
X54712Y-32073D01*
X54780Y-32193D01*
X54824Y-32324D01*
X54841Y-32461D01*
X54842Y-32480D01*
G54D12*
X55134Y-31730D02*
X55065Y-31646D01*
X54989Y-31568D01*
X54906Y-31497D01*
X54817Y-31433D01*
X54723Y-31378D01*
X54625Y-31331D01*
X54523Y-31292D01*
X54418Y-31263D01*
X54311Y-31243D01*
X54202Y-31232D01*
X54094Y-31231D01*
X53985Y-31240D01*
X53878Y-31257D01*
X53772Y-31284D01*
X53669Y-31321D01*
X53570Y-31366D01*
X53475Y-31419D01*
X53385Y-31481D01*
X53301Y-31550D01*
X53223Y-31626D01*
X53152Y-31709D01*
X53088Y-31798D01*
X53033Y-31892D01*
X52986Y-31990D01*
X52947Y-32092D01*
X52918Y-32197D01*
X52898Y-32304D01*
X52887Y-32413D01*
X52886Y-32521D01*
X52895Y-32630D01*
X52912Y-32737D01*
X52939Y-32843D01*
X52976Y-32946D01*
X53021Y-33045D01*
X53074Y-33140D01*
X53136Y-33230D01*
X53205Y-33314D01*
X53281Y-33392D01*
X53364Y-33463D01*
X53453Y-33527D01*
X53547Y-33582D01*
X53645Y-33629D01*
X53747Y-33668D01*
X53852Y-33697D01*
X53959Y-33717D01*
X54068Y-33728D01*
X54176Y-33729D01*
X54285Y-33720D01*
X54392Y-33703D01*
X54498Y-33676D01*
X54601Y-33639D01*
X54700Y-33594D01*
X54795Y-33541D01*
X54885Y-33479D01*
X54969Y-33410D01*
X55047Y-33334D01*
X55118Y-33251D01*
X55134Y-33230D01*
G54D10*
X54135Y-32030D02*
X54096Y-32032D01*
X54057Y-32037D01*
X54019Y-32046D01*
X53982Y-32058D01*
X53945Y-32073D01*
X53911Y-32091D01*
X53877Y-32112D01*
X53846Y-32136D01*
X53817Y-32162D01*
X53791Y-32191D01*
X53767Y-32222D01*
X53746Y-32256D01*
X53728Y-32290D01*
X53713Y-32327D01*
X53701Y-32364D01*
X53692Y-32402D01*
X53687Y-32441D01*
X53685Y-32480D01*
X54135Y-32930D02*
X54174Y-32928D01*
X54213Y-32923D01*
X54251Y-32914D01*
X54288Y-32902D01*
X54325Y-32887D01*
X54360Y-32869D01*
X54393Y-32848D01*
X54424Y-32824D01*
X54453Y-32798D01*
X54479Y-32769D01*
X54503Y-32738D01*
X54524Y-32704D01*
X54542Y-32670D01*
X54557Y-32633D01*
X54569Y-32596D01*
X54578Y-32558D01*
X54583Y-32519D01*
X54585Y-32480D01*
X54135Y-31830D02*
X54079Y-31833D01*
X54023Y-31840D01*
X53967Y-31853D01*
X53913Y-31870D01*
X53861Y-31891D01*
X53811Y-31918D01*
X53763Y-31948D01*
X53718Y-31983D01*
X53676Y-32021D01*
X53638Y-32063D01*
X53603Y-32108D01*
X53573Y-32156D01*
X53546Y-32206D01*
X53525Y-32258D01*
X53508Y-32312D01*
X53495Y-32368D01*
X53488Y-32424D01*
X53485Y-32480D01*
X54135Y-33130D02*
X54191Y-33127D01*
X54247Y-33120D01*
X54303Y-33107D01*
X54357Y-33090D01*
X54409Y-33069D01*
X54460Y-33042D01*
X54507Y-33012D01*
X54552Y-32977D01*
X54594Y-32939D01*
X54632Y-32897D01*
X54667Y-32852D01*
X54697Y-32804D01*
X54724Y-32754D01*
X54745Y-32702D01*
X54762Y-32648D01*
X54775Y-32592D01*
X54782Y-32536D01*
X54785Y-32480D01*
X54135Y-31630D02*
X54061Y-31634D01*
X53988Y-31643D01*
X53916Y-31659D01*
X53845Y-31682D01*
X53776Y-31710D01*
X53711Y-31744D01*
X53648Y-31784D01*
X53589Y-31829D01*
X53534Y-31879D01*
X53484Y-31934D01*
X53439Y-31993D01*
X53399Y-32056D01*
X53365Y-32121D01*
X53337Y-32190D01*
X53314Y-32261D01*
X53298Y-32333D01*
X53289Y-32406D01*
X53285Y-32480D01*
X54135Y-33330D02*
X54209Y-33326D01*
X54282Y-33317D01*
X54354Y-33301D01*
X54425Y-33278D01*
X54494Y-33250D01*
X54560Y-33216D01*
X54622Y-33176D01*
X54681Y-33131D01*
X54736Y-33081D01*
X54786Y-33026D01*
X54831Y-32967D01*
X54871Y-32904D01*
X54905Y-32839D01*
X54933Y-32770D01*
X54956Y-32699D01*
X54972Y-32627D01*
X54981Y-32554D01*
X54985Y-32480D01*
G54D11*
X55155Y-30474D02*
X55155Y-28974D01*
G54D13*
X54842Y-29724D02*
X54828Y-29861D01*
X54788Y-29993D01*
X54723Y-30115D01*
X54636Y-30222D01*
X54530Y-30310D01*
X54408Y-30375D01*
X54277Y-30416D01*
X54139Y-30430D01*
X54003Y-30418D01*
X53871Y-30379D01*
X53748Y-30315D01*
X53641Y-30229D01*
X53552Y-30123D01*
X53486Y-30002D01*
X53444Y-29870D01*
X53429Y-29733D01*
X53440Y-29597D01*
X53478Y-29464D01*
X53541Y-29342D01*
X53627Y-29233D01*
X53732Y-29144D01*
X53852Y-29077D01*
X53984Y-29034D01*
X54121Y-29018D01*
X54257Y-29028D01*
X54390Y-29065D01*
X54513Y-29128D01*
X54622Y-29213D01*
X54712Y-29317D01*
X54780Y-29437D01*
X54824Y-29568D01*
X54841Y-29705D01*
X54842Y-29724D01*
G54D12*
X55134Y-28974D02*
X55065Y-28890D01*
X54989Y-28812D01*
X54906Y-28741D01*
X54817Y-28677D01*
X54723Y-28622D01*
X54625Y-28575D01*
X54523Y-28536D01*
X54418Y-28507D01*
X54311Y-28487D01*
X54202Y-28476D01*
X54094Y-28475D01*
X53985Y-28484D01*
X53878Y-28501D01*
X53772Y-28528D01*
X53669Y-28565D01*
X53570Y-28610D01*
X53475Y-28663D01*
X53385Y-28725D01*
X53301Y-28794D01*
X53223Y-28870D01*
X53152Y-28953D01*
X53088Y-29042D01*
X53033Y-29136D01*
X52986Y-29234D01*
X52947Y-29336D01*
X52918Y-29441D01*
X52898Y-29548D01*
X52887Y-29657D01*
X52886Y-29765D01*
X52895Y-29874D01*
X52912Y-29981D01*
X52939Y-30087D01*
X52976Y-30190D01*
X53021Y-30289D01*
X53074Y-30384D01*
X53136Y-30474D01*
X53205Y-30558D01*
X53281Y-30636D01*
X53364Y-30707D01*
X53453Y-30771D01*
X53547Y-30826D01*
X53645Y-30873D01*
X53747Y-30912D01*
X53852Y-30941D01*
X53959Y-30961D01*
X54068Y-30972D01*
X54176Y-30973D01*
X54285Y-30964D01*
X54392Y-30947D01*
X54498Y-30920D01*
X54601Y-30883D01*
X54700Y-30838D01*
X54795Y-30785D01*
X54885Y-30723D01*
X54969Y-30654D01*
X55047Y-30578D01*
X55118Y-30495D01*
X55134Y-30474D01*
G54D10*
X54135Y-29274D02*
X54096Y-29276D01*
X54057Y-29281D01*
X54019Y-29290D01*
X53982Y-29302D01*
X53945Y-29317D01*
X53911Y-29335D01*
X53877Y-29356D01*
X53846Y-29380D01*
X53817Y-29406D01*
X53791Y-29435D01*
X53767Y-29466D01*
X53746Y-29500D01*
X53728Y-29534D01*
X53713Y-29571D01*
X53701Y-29608D01*
X53692Y-29646D01*
X53687Y-29685D01*
X53685Y-29724D01*
X54135Y-30174D02*
X54174Y-30172D01*
X54213Y-30167D01*
X54251Y-30158D01*
X54288Y-30146D01*
X54325Y-30131D01*
X54360Y-30113D01*
X54393Y-30092D01*
X54424Y-30068D01*
X54453Y-30042D01*
X54479Y-30013D01*
X54503Y-29982D01*
X54524Y-29948D01*
X54542Y-29914D01*
X54557Y-29877D01*
X54569Y-29840D01*
X54578Y-29802D01*
X54583Y-29763D01*
X54585Y-29724D01*
X54135Y-29074D02*
X54079Y-29077D01*
X54023Y-29084D01*
X53967Y-29097D01*
X53913Y-29114D01*
X53861Y-29135D01*
X53811Y-29162D01*
X53763Y-29192D01*
X53718Y-29227D01*
X53676Y-29265D01*
X53638Y-29307D01*
X53603Y-29352D01*
X53573Y-29400D01*
X53546Y-29450D01*
X53525Y-29502D01*
X53508Y-29556D01*
X53495Y-29612D01*
X53488Y-29668D01*
X53485Y-29724D01*
X54135Y-30374D02*
X54191Y-30371D01*
X54247Y-30364D01*
X54303Y-30351D01*
X54357Y-30334D01*
X54409Y-30313D01*
X54460Y-30286D01*
X54507Y-30256D01*
X54552Y-30221D01*
X54594Y-30183D01*
X54632Y-30141D01*
X54667Y-30096D01*
X54697Y-30048D01*
X54724Y-29998D01*
X54745Y-29946D01*
X54762Y-29892D01*
X54775Y-29836D01*
X54782Y-29780D01*
X54785Y-29724D01*
X54135Y-28874D02*
X54061Y-28878D01*
X53988Y-28887D01*
X53916Y-28903D01*
X53845Y-28926D01*
X53776Y-28954D01*
X53711Y-28988D01*
X53648Y-29028D01*
X53589Y-29073D01*
X53534Y-29123D01*
X53484Y-29178D01*
X53439Y-29237D01*
X53399Y-29300D01*
X53365Y-29365D01*
X53337Y-29434D01*
X53314Y-29505D01*
X53298Y-29577D01*
X53289Y-29650D01*
X53285Y-29724D01*
X54135Y-30574D02*
X54209Y-30570D01*
X54282Y-30561D01*
X54354Y-30545D01*
X54425Y-30522D01*
X54494Y-30494D01*
X54560Y-30460D01*
X54622Y-30420D01*
X54681Y-30375D01*
X54736Y-30325D01*
X54786Y-30270D01*
X54831Y-30211D01*
X54871Y-30148D01*
X54905Y-30083D01*
X54933Y-30014D01*
X54956Y-29943D01*
X54972Y-29871D01*
X54981Y-29798D01*
X54985Y-29724D01*
G54D11*
X55155Y-27719D02*
X55155Y-26219D01*
G54D13*
X54842Y-26969D02*
X54828Y-27106D01*
X54788Y-27238D01*
X54723Y-27360D01*
X54636Y-27467D01*
X54530Y-27555D01*
X54408Y-27620D01*
X54277Y-27661D01*
X54139Y-27675D01*
X54003Y-27663D01*
X53871Y-27624D01*
X53748Y-27560D01*
X53641Y-27474D01*
X53552Y-27368D01*
X53486Y-27247D01*
X53444Y-27115D01*
X53429Y-26978D01*
X53440Y-26842D01*
X53478Y-26709D01*
X53541Y-26587D01*
X53627Y-26478D01*
X53732Y-26389D01*
X53852Y-26322D01*
X53984Y-26279D01*
X54121Y-26263D01*
X54257Y-26273D01*
X54390Y-26310D01*
X54513Y-26373D01*
X54622Y-26458D01*
X54712Y-26562D01*
X54780Y-26682D01*
X54824Y-26813D01*
X54841Y-26950D01*
X54842Y-26969D01*
G54D12*
X55134Y-26219D02*
X55065Y-26135D01*
X54989Y-26057D01*
X54906Y-25986D01*
X54817Y-25922D01*
X54723Y-25867D01*
X54625Y-25820D01*
X54523Y-25781D01*
X54418Y-25752D01*
X54311Y-25732D01*
X54202Y-25721D01*
X54094Y-25720D01*
X53985Y-25729D01*
X53878Y-25746D01*
X53772Y-25773D01*
X53669Y-25810D01*
X53570Y-25855D01*
X53475Y-25908D01*
X53385Y-25970D01*
X53301Y-26039D01*
X53223Y-26115D01*
X53152Y-26198D01*
X53088Y-26287D01*
X53033Y-26381D01*
X52986Y-26479D01*
X52947Y-26581D01*
X52918Y-26686D01*
X52898Y-26793D01*
X52887Y-26902D01*
X52886Y-27010D01*
X52895Y-27119D01*
X52912Y-27226D01*
X52939Y-27332D01*
X52976Y-27435D01*
X53021Y-27534D01*
X53074Y-27629D01*
X53136Y-27719D01*
X53205Y-27803D01*
X53281Y-27881D01*
X53364Y-27952D01*
X53453Y-28016D01*
X53547Y-28071D01*
X53645Y-28118D01*
X53747Y-28157D01*
X53852Y-28186D01*
X53959Y-28206D01*
X54068Y-28217D01*
X54176Y-28218D01*
X54285Y-28209D01*
X54392Y-28192D01*
X54498Y-28165D01*
X54601Y-28128D01*
X54700Y-28083D01*
X54795Y-28030D01*
X54885Y-27968D01*
X54969Y-27899D01*
X55047Y-27823D01*
X55118Y-27740D01*
X55134Y-27719D01*
G54D10*
X54135Y-26519D02*
X54096Y-26521D01*
X54057Y-26526D01*
X54019Y-26535D01*
X53982Y-26547D01*
X53945Y-26562D01*
X53911Y-26580D01*
X53877Y-26601D01*
X53846Y-26625D01*
X53817Y-26651D01*
X53791Y-26680D01*
X53767Y-26711D01*
X53746Y-26745D01*
X53728Y-26779D01*
X53713Y-26816D01*
X53701Y-26853D01*
X53692Y-26891D01*
X53687Y-26930D01*
X53685Y-26969D01*
X54135Y-27419D02*
X54174Y-27417D01*
X54213Y-27412D01*
X54251Y-27403D01*
X54288Y-27391D01*
X54325Y-27376D01*
X54360Y-27358D01*
X54393Y-27337D01*
X54424Y-27313D01*
X54453Y-27287D01*
X54479Y-27258D01*
X54503Y-27227D01*
X54524Y-27193D01*
X54542Y-27159D01*
X54557Y-27122D01*
X54569Y-27085D01*
X54578Y-27047D01*
X54583Y-27008D01*
X54585Y-26969D01*
X54135Y-26319D02*
X54079Y-26322D01*
X54023Y-26329D01*
X53967Y-26342D01*
X53913Y-26359D01*
X53861Y-26380D01*
X53811Y-26407D01*
X53763Y-26437D01*
X53718Y-26472D01*
X53676Y-26510D01*
X53638Y-26552D01*
X53603Y-26597D01*
X53573Y-26645D01*
X53546Y-26695D01*
X53525Y-26747D01*
X53508Y-26801D01*
X53495Y-26857D01*
X53488Y-26913D01*
X53485Y-26969D01*
X54135Y-27619D02*
X54191Y-27616D01*
X54247Y-27609D01*
X54303Y-27596D01*
X54357Y-27579D01*
X54409Y-27558D01*
X54460Y-27531D01*
X54507Y-27501D01*
X54552Y-27466D01*
X54594Y-27428D01*
X54632Y-27386D01*
X54667Y-27341D01*
X54697Y-27293D01*
X54724Y-27243D01*
X54745Y-27191D01*
X54762Y-27137D01*
X54775Y-27081D01*
X54782Y-27025D01*
X54785Y-26969D01*
X54135Y-26119D02*
X54061Y-26123D01*
X53988Y-26132D01*
X53916Y-26148D01*
X53845Y-26171D01*
X53776Y-26199D01*
X53711Y-26233D01*
X53648Y-26273D01*
X53589Y-26318D01*
X53534Y-26368D01*
X53484Y-26423D01*
X53439Y-26482D01*
X53399Y-26545D01*
X53365Y-26610D01*
X53337Y-26679D01*
X53314Y-26750D01*
X53298Y-26822D01*
X53289Y-26895D01*
X53285Y-26969D01*
X54135Y-27819D02*
X54209Y-27815D01*
X54282Y-27806D01*
X54354Y-27790D01*
X54425Y-27767D01*
X54494Y-27739D01*
X54560Y-27705D01*
X54622Y-27665D01*
X54681Y-27620D01*
X54736Y-27570D01*
X54786Y-27515D01*
X54831Y-27456D01*
X54871Y-27393D01*
X54905Y-27328D01*
X54933Y-27259D01*
X54956Y-27188D01*
X54972Y-27116D01*
X54981Y-27043D01*
X54985Y-26969D01*
G54D11*
X55155Y-24963D02*
X55155Y-23463D01*
G54D13*
X54842Y-24213D02*
X54828Y-24350D01*
X54788Y-24482D01*
X54723Y-24604D01*
X54636Y-24711D01*
X54530Y-24799D01*
X54408Y-24864D01*
X54277Y-24905D01*
X54139Y-24919D01*
X54003Y-24907D01*
X53871Y-24868D01*
X53748Y-24804D01*
X53641Y-24718D01*
X53552Y-24612D01*
X53486Y-24491D01*
X53444Y-24359D01*
X53429Y-24222D01*
X53440Y-24086D01*
X53478Y-23953D01*
X53541Y-23831D01*
X53627Y-23722D01*
X53732Y-23633D01*
X53852Y-23566D01*
X53984Y-23523D01*
X54121Y-23507D01*
X54257Y-23517D01*
X54390Y-23554D01*
X54513Y-23617D01*
X54622Y-23702D01*
X54712Y-23806D01*
X54780Y-23926D01*
X54824Y-24057D01*
X54841Y-24194D01*
X54842Y-24213D01*
G54D12*
X55134Y-23463D02*
X55065Y-23379D01*
X54989Y-23301D01*
X54906Y-23230D01*
X54817Y-23166D01*
X54723Y-23111D01*
X54625Y-23064D01*
X54523Y-23025D01*
X54418Y-22996D01*
X54311Y-22976D01*
X54202Y-22965D01*
X54094Y-22964D01*
X53985Y-22973D01*
X53878Y-22990D01*
X53772Y-23017D01*
X53669Y-23054D01*
X53570Y-23099D01*
X53475Y-23152D01*
X53385Y-23214D01*
X53301Y-23283D01*
X53223Y-23359D01*
X53152Y-23442D01*
X53088Y-23531D01*
X53033Y-23625D01*
X52986Y-23723D01*
X52947Y-23825D01*
X52918Y-23930D01*
X52898Y-24037D01*
X52887Y-24146D01*
X52886Y-24254D01*
X52895Y-24363D01*
X52912Y-24470D01*
X52939Y-24576D01*
X52976Y-24679D01*
X53021Y-24778D01*
X53074Y-24873D01*
X53136Y-24963D01*
X53205Y-25047D01*
X53281Y-25125D01*
X53364Y-25196D01*
X53453Y-25260D01*
X53547Y-25315D01*
X53645Y-25362D01*
X53747Y-25401D01*
X53852Y-25430D01*
X53959Y-25450D01*
X54068Y-25461D01*
X54176Y-25462D01*
X54285Y-25453D01*
X54392Y-25436D01*
X54498Y-25409D01*
X54601Y-25372D01*
X54700Y-25327D01*
X54795Y-25274D01*
X54885Y-25212D01*
X54969Y-25143D01*
X55047Y-25067D01*
X55118Y-24984D01*
X55134Y-24963D01*
G54D10*
X54135Y-23763D02*
X54096Y-23765D01*
X54057Y-23770D01*
X54019Y-23779D01*
X53982Y-23791D01*
X53945Y-23806D01*
X53911Y-23824D01*
X53877Y-23845D01*
X53846Y-23869D01*
X53817Y-23895D01*
X53791Y-23924D01*
X53767Y-23955D01*
X53746Y-23989D01*
X53728Y-24023D01*
X53713Y-24060D01*
X53701Y-24097D01*
X53692Y-24135D01*
X53687Y-24174D01*
X53685Y-24213D01*
X54135Y-24663D02*
X54174Y-24661D01*
X54213Y-24656D01*
X54251Y-24647D01*
X54288Y-24635D01*
X54325Y-24620D01*
X54360Y-24602D01*
X54393Y-24581D01*
X54424Y-24557D01*
X54453Y-24531D01*
X54479Y-24502D01*
X54503Y-24471D01*
X54524Y-24437D01*
X54542Y-24403D01*
X54557Y-24366D01*
X54569Y-24329D01*
X54578Y-24291D01*
X54583Y-24252D01*
X54585Y-24213D01*
X54135Y-23563D02*
X54079Y-23566D01*
X54023Y-23573D01*
X53967Y-23586D01*
X53913Y-23603D01*
X53861Y-23624D01*
X53811Y-23651D01*
X53763Y-23681D01*
X53718Y-23716D01*
X53676Y-23754D01*
X53638Y-23796D01*
X53603Y-23841D01*
X53573Y-23889D01*
X53546Y-23939D01*
X53525Y-23991D01*
X53508Y-24045D01*
X53495Y-24101D01*
X53488Y-24157D01*
X53485Y-24213D01*
X54135Y-24863D02*
X54191Y-24860D01*
X54247Y-24853D01*
X54303Y-24840D01*
X54357Y-24823D01*
X54409Y-24802D01*
X54460Y-24775D01*
X54507Y-24745D01*
X54552Y-24710D01*
X54594Y-24672D01*
X54632Y-24630D01*
X54667Y-24585D01*
X54697Y-24537D01*
X54724Y-24487D01*
X54745Y-24435D01*
X54762Y-24381D01*
X54775Y-24325D01*
X54782Y-24269D01*
X54785Y-24213D01*
X54135Y-23363D02*
X54061Y-23367D01*
X53988Y-23376D01*
X53916Y-23392D01*
X53845Y-23415D01*
X53776Y-23443D01*
X53711Y-23477D01*
X53648Y-23517D01*
X53589Y-23562D01*
X53534Y-23612D01*
X53484Y-23667D01*
X53439Y-23726D01*
X53399Y-23789D01*
X53365Y-23854D01*
X53337Y-23923D01*
X53314Y-23994D01*
X53298Y-24066D01*
X53289Y-24139D01*
X53285Y-24213D01*
X54135Y-25063D02*
X54209Y-25059D01*
X54282Y-25050D01*
X54354Y-25034D01*
X54425Y-25011D01*
X54494Y-24983D01*
X54560Y-24949D01*
X54622Y-24909D01*
X54681Y-24864D01*
X54736Y-24814D01*
X54786Y-24759D01*
X54831Y-24700D01*
X54871Y-24637D01*
X54905Y-24572D01*
X54933Y-24503D01*
X54956Y-24432D01*
X54972Y-24360D01*
X54981Y-24287D01*
X54985Y-24213D01*
G54D11*
X55155Y-22207D02*
X55155Y-20707D01*
G54D13*
X54842Y-21457D02*
X54828Y-21594D01*
X54788Y-21726D01*
X54723Y-21848D01*
X54636Y-21955D01*
X54530Y-22043D01*
X54408Y-22108D01*
X54277Y-22149D01*
X54139Y-22163D01*
X54003Y-22151D01*
X53871Y-22112D01*
X53748Y-22048D01*
X53641Y-21962D01*
X53552Y-21856D01*
X53486Y-21735D01*
X53444Y-21603D01*
X53429Y-21466D01*
X53440Y-21330D01*
X53478Y-21197D01*
X53541Y-21075D01*
X53627Y-20966D01*
X53732Y-20877D01*
X53852Y-20810D01*
X53984Y-20767D01*
X54121Y-20751D01*
X54257Y-20761D01*
X54390Y-20798D01*
X54513Y-20861D01*
X54622Y-20946D01*
X54712Y-21050D01*
X54780Y-21170D01*
X54824Y-21301D01*
X54841Y-21438D01*
X54842Y-21457D01*
G54D12*
X55134Y-20707D02*
X55065Y-20623D01*
X54989Y-20545D01*
X54906Y-20474D01*
X54817Y-20410D01*
X54723Y-20355D01*
X54625Y-20308D01*
X54523Y-20269D01*
X54418Y-20240D01*
X54311Y-20220D01*
X54202Y-20209D01*
X54094Y-20208D01*
X53985Y-20217D01*
X53878Y-20234D01*
X53772Y-20261D01*
X53669Y-20298D01*
X53570Y-20343D01*
X53475Y-20396D01*
X53385Y-20458D01*
X53301Y-20527D01*
X53223Y-20603D01*
X53152Y-20686D01*
X53088Y-20775D01*
X53033Y-20869D01*
X52986Y-20967D01*
X52947Y-21069D01*
X52918Y-21174D01*
X52898Y-21281D01*
X52887Y-21390D01*
X52886Y-21498D01*
X52895Y-21607D01*
X52912Y-21714D01*
X52939Y-21820D01*
X52976Y-21923D01*
X53021Y-22022D01*
X53074Y-22117D01*
X53136Y-22207D01*
X53205Y-22291D01*
X53281Y-22369D01*
X53364Y-22440D01*
X53453Y-22504D01*
X53547Y-22559D01*
X53645Y-22606D01*
X53747Y-22645D01*
X53852Y-22674D01*
X53959Y-22694D01*
X54068Y-22705D01*
X54176Y-22706D01*
X54285Y-22697D01*
X54392Y-22680D01*
X54498Y-22653D01*
X54601Y-22616D01*
X54700Y-22571D01*
X54795Y-22518D01*
X54885Y-22456D01*
X54969Y-22387D01*
X55047Y-22311D01*
X55118Y-22228D01*
X55134Y-22207D01*
G54D10*
X54135Y-21007D02*
X54096Y-21009D01*
X54057Y-21014D01*
X54019Y-21023D01*
X53982Y-21035D01*
X53945Y-21050D01*
X53911Y-21068D01*
X53877Y-21089D01*
X53846Y-21113D01*
X53817Y-21139D01*
X53791Y-21168D01*
X53767Y-21199D01*
X53746Y-21233D01*
X53728Y-21267D01*
X53713Y-21304D01*
X53701Y-21341D01*
X53692Y-21379D01*
X53687Y-21418D01*
X53685Y-21457D01*
X54135Y-21907D02*
X54174Y-21905D01*
X54213Y-21900D01*
X54251Y-21891D01*
X54288Y-21879D01*
X54325Y-21864D01*
X54360Y-21846D01*
X54393Y-21825D01*
X54424Y-21801D01*
X54453Y-21775D01*
X54479Y-21746D01*
X54503Y-21715D01*
X54524Y-21681D01*
X54542Y-21647D01*
X54557Y-21610D01*
X54569Y-21573D01*
X54578Y-21535D01*
X54583Y-21496D01*
X54585Y-21457D01*
X54135Y-20807D02*
X54079Y-20810D01*
X54023Y-20817D01*
X53967Y-20830D01*
X53913Y-20847D01*
X53861Y-20868D01*
X53811Y-20895D01*
X53763Y-20925D01*
X53718Y-20960D01*
X53676Y-20998D01*
X53638Y-21040D01*
X53603Y-21085D01*
X53573Y-21133D01*
X53546Y-21183D01*
X53525Y-21235D01*
X53508Y-21289D01*
X53495Y-21345D01*
X53488Y-21401D01*
X53485Y-21457D01*
X54135Y-22107D02*
X54191Y-22104D01*
X54247Y-22097D01*
X54303Y-22084D01*
X54357Y-22067D01*
X54409Y-22046D01*
X54460Y-22019D01*
X54507Y-21989D01*
X54552Y-21954D01*
X54594Y-21916D01*
X54632Y-21874D01*
X54667Y-21829D01*
X54697Y-21781D01*
X54724Y-21731D01*
X54745Y-21679D01*
X54762Y-21625D01*
X54775Y-21569D01*
X54782Y-21513D01*
X54785Y-21457D01*
X54135Y-20607D02*
X54061Y-20611D01*
X53988Y-20620D01*
X53916Y-20636D01*
X53845Y-20659D01*
X53776Y-20687D01*
X53711Y-20721D01*
X53648Y-20761D01*
X53589Y-20806D01*
X53534Y-20856D01*
X53484Y-20911D01*
X53439Y-20970D01*
X53399Y-21033D01*
X53365Y-21098D01*
X53337Y-21167D01*
X53314Y-21238D01*
X53298Y-21310D01*
X53289Y-21383D01*
X53285Y-21457D01*
X54135Y-22307D02*
X54209Y-22303D01*
X54282Y-22294D01*
X54354Y-22278D01*
X54425Y-22255D01*
X54494Y-22227D01*
X54560Y-22193D01*
X54622Y-22153D01*
X54681Y-22108D01*
X54736Y-22058D01*
X54786Y-22003D01*
X54831Y-21944D01*
X54871Y-21881D01*
X54905Y-21816D01*
X54933Y-21747D01*
X54956Y-21676D01*
X54972Y-21604D01*
X54981Y-21531D01*
X54985Y-21457D01*
G54D14*
X66748Y-23602D02*
X66748Y-38602D01*
X66748Y-38602D02*
X64748Y-38602D01*
X64748Y-38602D02*
X64748Y-23602D01*
X64748Y-23602D02*
X66748Y-23602D01*
X66248Y-23602D02*
X66248Y-24102D01*
X66248Y-24102D02*
X65248Y-24102D01*
X65248Y-24102D02*
X65248Y-23602D01*
G54D15*
X61902Y-33067D02*
X61902Y-31087D01*
X61902Y-31087D02*
X62902Y-31087D01*
X62902Y-31087D02*
X62902Y-33087D01*
X62902Y-33087D02*
X61902Y-33087D01*
X62152Y-33087D02*
X61902Y-32837D01*
G54D11*
X58226Y-41021D02*
X58059Y-40759D01*
X57940Y-41021D02*
X57940Y-40471D01*
X58131Y-40471D01*
X58178Y-40497D01*
X58202Y-40523D01*
X58226Y-40575D01*
X58226Y-40654D01*
X58202Y-40706D01*
X58178Y-40733D01*
X58131Y-40759D01*
X57940Y-40759D01*
X58226Y-38265D02*
X58059Y-38003D01*
X57940Y-38265D02*
X57940Y-37715D01*
X58131Y-37715D01*
X58178Y-37741D01*
X58202Y-37767D01*
X58226Y-37819D01*
X58226Y-37898D01*
X58202Y-37950D01*
X58178Y-37977D01*
X58131Y-38003D01*
X57940Y-38003D01*
X58226Y-35509D02*
X58059Y-35247D01*
X57940Y-35509D02*
X57940Y-34959D01*
X58131Y-34959D01*
X58178Y-34985D01*
X58202Y-35011D01*
X58226Y-35063D01*
X58226Y-35142D01*
X58202Y-35194D01*
X58178Y-35221D01*
X58131Y-35247D01*
X57940Y-35247D01*
X58226Y-32753D02*
X58059Y-32491D01*
X57940Y-32753D02*
X57940Y-32203D01*
X58131Y-32203D01*
X58178Y-32229D01*
X58202Y-32255D01*
X58226Y-32307D01*
X58226Y-32386D01*
X58202Y-32438D01*
X58178Y-32465D01*
X58131Y-32491D01*
X57940Y-32491D01*
X58226Y-29997D02*
X58059Y-29735D01*
X57940Y-29997D02*
X57940Y-29447D01*
X58131Y-29447D01*
X58178Y-29473D01*
X58202Y-29499D01*
X58226Y-29551D01*
X58226Y-29630D01*
X58202Y-29682D01*
X58178Y-29709D01*
X58131Y-29735D01*
X57940Y-29735D01*
X58226Y-27242D02*
X58059Y-26980D01*
X57940Y-27242D02*
X57940Y-26692D01*
X58131Y-26692D01*
X58178Y-26718D01*
X58202Y-26744D01*
X58226Y-26796D01*
X58226Y-26875D01*
X58202Y-26927D01*
X58178Y-26954D01*
X58131Y-26980D01*
X57940Y-26980D01*
X58226Y-24486D02*
X58059Y-24224D01*
X57940Y-24486D02*
X57940Y-23936D01*
X58131Y-23936D01*
X58178Y-23962D01*
X58202Y-23988D01*
X58226Y-24040D01*
X58226Y-24119D01*
X58202Y-24171D01*
X58178Y-24198D01*
X58131Y-24224D01*
X57940Y-24224D01*
X58226Y-21730D02*
X58059Y-21468D01*
X57940Y-21730D02*
X57940Y-21180D01*
X58131Y-21180D01*
X58178Y-21206D01*
X58202Y-21232D01*
X58226Y-21284D01*
X58226Y-21363D01*
X58202Y-21415D01*
X58178Y-21442D01*
X58131Y-21468D01*
X57940Y-21468D01*
X62675Y-35672D02*
X62413Y-35839D01*
X62675Y-35958D02*
X62125Y-35958D01*
X62125Y-35767D01*
X62151Y-35720D01*
X62177Y-35696D01*
X62229Y-35672D01*
X62308Y-35672D01*
X62360Y-35696D01*
X62387Y-35720D01*
X62413Y-35767D01*
X62413Y-35958D01*
X58226Y-44367D02*
X58059Y-44105D01*
X57940Y-44367D02*
X57940Y-43817D01*
X58131Y-43817D01*
X58178Y-43843D01*
X58202Y-43869D01*
X58226Y-43921D01*
X58226Y-44000D01*
X58202Y-44052D01*
X58178Y-44079D01*
X58131Y-44105D01*
X57940Y-44105D01*
X65256Y-42697D02*
X65256Y-42297D01*
X65409Y-42297D01*
X65447Y-42316D01*
X65466Y-42335D01*
X65485Y-42373D01*
X65485Y-42430D01*
X65466Y-42468D01*
X65447Y-42487D01*
X65409Y-42506D01*
X65256Y-42506D01*
X65866Y-42697D02*
X65637Y-42697D01*
X65751Y-42697D02*
X65751Y-42297D01*
X65713Y-42354D01*
X65675Y-42392D01*
X65637Y-42411D01*
G54D10*
X53734Y-44951D02*
X53777Y-44965D01*
X53848Y-44965D01*
X53877Y-44951D01*
X53891Y-44937D01*
X53906Y-44908D01*
X53906Y-44880D01*
X53891Y-44851D01*
X53877Y-44837D01*
X53848Y-44823D01*
X53791Y-44808D01*
X53763Y-44794D01*
X53748Y-44780D01*
X53734Y-44751D01*
X53734Y-44723D01*
X53748Y-44694D01*
X53763Y-44680D01*
X53791Y-44665D01*
X53863Y-44665D01*
X53906Y-44680D01*
X54006Y-44665D02*
X54077Y-44965D01*
X54134Y-44751D01*
X54192Y-44965D01*
X54263Y-44665D01*
X54535Y-44965D02*
X54363Y-44965D01*
X54449Y-44965D02*
X54449Y-44665D01*
X54420Y-44708D01*
X54392Y-44737D01*
X54363Y-44751D01*
G54D16*
X53813Y-39369D02*
X53813Y-39069D01*
X53885Y-39069D01*
X53928Y-39084D01*
X53956Y-39112D01*
X53971Y-39141D01*
X53985Y-39198D01*
X53985Y-39241D01*
X53971Y-39298D01*
X53956Y-39327D01*
X53928Y-39355D01*
X53885Y-39369D01*
X53813Y-39369D01*
X54156Y-39198D02*
X54128Y-39184D01*
X54113Y-39169D01*
X54099Y-39141D01*
X54099Y-39127D01*
X54113Y-39098D01*
X54128Y-39084D01*
X54156Y-39069D01*
X54213Y-39069D01*
X54242Y-39084D01*
X54256Y-39098D01*
X54271Y-39127D01*
X54271Y-39141D01*
X54256Y-39169D01*
X54242Y-39184D01*
X54213Y-39198D01*
X54156Y-39198D01*
X54128Y-39212D01*
X54113Y-39227D01*
X54099Y-39255D01*
X54099Y-39312D01*
X54113Y-39341D01*
X54128Y-39355D01*
X54156Y-39369D01*
X54213Y-39369D01*
X54242Y-39355D01*
X54256Y-39341D01*
X54271Y-39312D01*
X54271Y-39255D01*
X54256Y-39227D01*
X54242Y-39212D01*
X54213Y-39198D01*
X53842Y-42369D02*
X53699Y-42369D01*
X53699Y-42069D01*
X53942Y-42212D02*
X54042Y-42212D01*
X54085Y-42369D02*
X53942Y-42369D01*
X53942Y-42069D01*
X54085Y-42069D01*
X54213Y-42369D02*
X54213Y-42069D01*
X54285Y-42069D01*
X54328Y-42084D01*
X54356Y-42112D01*
X54371Y-42141D01*
X54385Y-42198D01*
X54385Y-42241D01*
X54371Y-42298D01*
X54356Y-42327D01*
X54328Y-42355D01*
X54285Y-42369D01*
X54213Y-42369D01*
X53813Y-36613D02*
X53813Y-36313D01*
X53885Y-36313D01*
X53928Y-36328D01*
X53956Y-36356D01*
X53971Y-36385D01*
X53985Y-36442D01*
X53985Y-36485D01*
X53971Y-36542D01*
X53956Y-36571D01*
X53928Y-36599D01*
X53885Y-36613D01*
X53813Y-36613D01*
X54085Y-36313D02*
X54285Y-36313D01*
X54156Y-36613D01*
X53842Y-39613D02*
X53699Y-39613D01*
X53699Y-39313D01*
X53942Y-39456D02*
X54042Y-39456D01*
X54085Y-39613D02*
X53942Y-39613D01*
X53942Y-39313D01*
X54085Y-39313D01*
X54213Y-39613D02*
X54213Y-39313D01*
X54285Y-39313D01*
X54328Y-39328D01*
X54356Y-39356D01*
X54371Y-39385D01*
X54385Y-39442D01*
X54385Y-39485D01*
X54371Y-39542D01*
X54356Y-39571D01*
X54328Y-39599D01*
X54285Y-39613D01*
X54213Y-39613D01*
X53813Y-33857D02*
X53813Y-33557D01*
X53885Y-33557D01*
X53928Y-33572D01*
X53956Y-33600D01*
X53971Y-33629D01*
X53985Y-33686D01*
X53985Y-33729D01*
X53971Y-33786D01*
X53956Y-33815D01*
X53928Y-33843D01*
X53885Y-33857D01*
X53813Y-33857D01*
X54242Y-33557D02*
X54185Y-33557D01*
X54156Y-33572D01*
X54142Y-33586D01*
X54113Y-33629D01*
X54099Y-33686D01*
X54099Y-33800D01*
X54113Y-33829D01*
X54128Y-33843D01*
X54156Y-33857D01*
X54213Y-33857D01*
X54242Y-33843D01*
X54256Y-33829D01*
X54271Y-33800D01*
X54271Y-33729D01*
X54256Y-33700D01*
X54242Y-33686D01*
X54213Y-33672D01*
X54156Y-33672D01*
X54128Y-33686D01*
X54113Y-33700D01*
X54099Y-33729D01*
X53842Y-36857D02*
X53699Y-36857D01*
X53699Y-36557D01*
X53942Y-36700D02*
X54042Y-36700D01*
X54085Y-36857D02*
X53942Y-36857D01*
X53942Y-36557D01*
X54085Y-36557D01*
X54213Y-36857D02*
X54213Y-36557D01*
X54285Y-36557D01*
X54328Y-36572D01*
X54356Y-36600D01*
X54371Y-36629D01*
X54385Y-36686D01*
X54385Y-36729D01*
X54371Y-36786D01*
X54356Y-36815D01*
X54328Y-36843D01*
X54285Y-36857D01*
X54213Y-36857D01*
X53813Y-31101D02*
X53813Y-30801D01*
X53885Y-30801D01*
X53928Y-30816D01*
X53956Y-30844D01*
X53971Y-30873D01*
X53985Y-30930D01*
X53985Y-30973D01*
X53971Y-31030D01*
X53956Y-31059D01*
X53928Y-31087D01*
X53885Y-31101D01*
X53813Y-31101D01*
X54256Y-30801D02*
X54113Y-30801D01*
X54099Y-30944D01*
X54113Y-30930D01*
X54142Y-30916D01*
X54213Y-30916D01*
X54242Y-30930D01*
X54256Y-30944D01*
X54271Y-30973D01*
X54271Y-31044D01*
X54256Y-31073D01*
X54242Y-31087D01*
X54213Y-31101D01*
X54142Y-31101D01*
X54113Y-31087D01*
X54099Y-31073D01*
X53842Y-34101D02*
X53699Y-34101D01*
X53699Y-33801D01*
X53942Y-33944D02*
X54042Y-33944D01*
X54085Y-34101D02*
X53942Y-34101D01*
X53942Y-33801D01*
X54085Y-33801D01*
X54213Y-34101D02*
X54213Y-33801D01*
X54285Y-33801D01*
X54328Y-33816D01*
X54356Y-33844D01*
X54371Y-33873D01*
X54385Y-33930D01*
X54385Y-33973D01*
X54371Y-34030D01*
X54356Y-34059D01*
X54328Y-34087D01*
X54285Y-34101D01*
X54213Y-34101D01*
X53813Y-28345D02*
X53813Y-28045D01*
X53885Y-28045D01*
X53928Y-28060D01*
X53956Y-28088D01*
X53971Y-28117D01*
X53985Y-28174D01*
X53985Y-28217D01*
X53971Y-28274D01*
X53956Y-28303D01*
X53928Y-28331D01*
X53885Y-28345D01*
X53813Y-28345D01*
X54242Y-28145D02*
X54242Y-28345D01*
X54171Y-28031D02*
X54099Y-28245D01*
X54285Y-28245D01*
X53842Y-31345D02*
X53699Y-31345D01*
X53699Y-31045D01*
X53942Y-31188D02*
X54042Y-31188D01*
X54085Y-31345D02*
X53942Y-31345D01*
X53942Y-31045D01*
X54085Y-31045D01*
X54213Y-31345D02*
X54213Y-31045D01*
X54285Y-31045D01*
X54328Y-31060D01*
X54356Y-31088D01*
X54371Y-31117D01*
X54385Y-31174D01*
X54385Y-31217D01*
X54371Y-31274D01*
X54356Y-31303D01*
X54328Y-31331D01*
X54285Y-31345D01*
X54213Y-31345D01*
X53813Y-25590D02*
X53813Y-25290D01*
X53885Y-25290D01*
X53928Y-25305D01*
X53956Y-25333D01*
X53971Y-25362D01*
X53985Y-25419D01*
X53985Y-25462D01*
X53971Y-25519D01*
X53956Y-25548D01*
X53928Y-25576D01*
X53885Y-25590D01*
X53813Y-25590D01*
X54085Y-25290D02*
X54271Y-25290D01*
X54171Y-25405D01*
X54213Y-25405D01*
X54242Y-25419D01*
X54256Y-25433D01*
X54271Y-25462D01*
X54271Y-25533D01*
X54256Y-25562D01*
X54242Y-25576D01*
X54213Y-25590D01*
X54128Y-25590D01*
X54099Y-25576D01*
X54085Y-25562D01*
X53842Y-28590D02*
X53699Y-28590D01*
X53699Y-28290D01*
X53942Y-28433D02*
X54042Y-28433D01*
X54085Y-28590D02*
X53942Y-28590D01*
X53942Y-28290D01*
X54085Y-28290D01*
X54213Y-28590D02*
X54213Y-28290D01*
X54285Y-28290D01*
X54328Y-28305D01*
X54356Y-28333D01*
X54371Y-28362D01*
X54385Y-28419D01*
X54385Y-28462D01*
X54371Y-28519D01*
X54356Y-28548D01*
X54328Y-28576D01*
X54285Y-28590D01*
X54213Y-28590D01*
X53813Y-22834D02*
X53813Y-22534D01*
X53885Y-22534D01*
X53928Y-22549D01*
X53956Y-22577D01*
X53971Y-22606D01*
X53985Y-22663D01*
X53985Y-22706D01*
X53971Y-22763D01*
X53956Y-22792D01*
X53928Y-22820D01*
X53885Y-22834D01*
X53813Y-22834D01*
X54099Y-22563D02*
X54113Y-22549D01*
X54142Y-22534D01*
X54213Y-22534D01*
X54242Y-22549D01*
X54256Y-22563D01*
X54271Y-22592D01*
X54271Y-22620D01*
X54256Y-22663D01*
X54085Y-22834D01*
X54271Y-22834D01*
X53842Y-25834D02*
X53699Y-25834D01*
X53699Y-25534D01*
X53942Y-25677D02*
X54042Y-25677D01*
X54085Y-25834D02*
X53942Y-25834D01*
X53942Y-25534D01*
X54085Y-25534D01*
X54213Y-25834D02*
X54213Y-25534D01*
X54285Y-25534D01*
X54328Y-25549D01*
X54356Y-25577D01*
X54371Y-25606D01*
X54385Y-25663D01*
X54385Y-25706D01*
X54371Y-25763D01*
X54356Y-25792D01*
X54328Y-25820D01*
X54285Y-25834D01*
X54213Y-25834D01*
X53813Y-20078D02*
X53813Y-19778D01*
X53885Y-19778D01*
X53928Y-19793D01*
X53956Y-19821D01*
X53971Y-19850D01*
X53985Y-19907D01*
X53985Y-19950D01*
X53971Y-20007D01*
X53956Y-20036D01*
X53928Y-20064D01*
X53885Y-20078D01*
X53813Y-20078D01*
X54271Y-20078D02*
X54099Y-20078D01*
X54185Y-20078D02*
X54185Y-19778D01*
X54156Y-19821D01*
X54128Y-19850D01*
X54099Y-19864D01*
X53842Y-23078D02*
X53699Y-23078D01*
X53699Y-22778D01*
X53942Y-22921D02*
X54042Y-22921D01*
X54085Y-23078D02*
X53942Y-23078D01*
X53942Y-22778D01*
X54085Y-22778D01*
X54213Y-23078D02*
X54213Y-22778D01*
X54285Y-22778D01*
X54328Y-22793D01*
X54356Y-22821D01*
X54371Y-22850D01*
X54385Y-22907D01*
X54385Y-22950D01*
X54371Y-23007D01*
X54356Y-23036D01*
X54328Y-23064D01*
X54285Y-23078D01*
X54213Y-23078D01*
G54D17*
X65391Y-26945D02*
X65877Y-26945D01*
X65934Y-26923D01*
X65962Y-26902D01*
X65991Y-26859D01*
X65991Y-26773D01*
X65962Y-26731D01*
X65934Y-26709D01*
X65877Y-26688D01*
X65391Y-26688D01*
X65991Y-26238D02*
X65991Y-26495D01*
X65991Y-26367D02*
X65391Y-26367D01*
X65477Y-26410D01*
X65534Y-26452D01*
X65562Y-26495D01*
X65991Y-35524D02*
X65391Y-35524D01*
X65819Y-35374D01*
X65391Y-35224D01*
X65991Y-35224D01*
X65934Y-34753D02*
X65962Y-34774D01*
X65991Y-34838D01*
X65991Y-34881D01*
X65962Y-34946D01*
X65905Y-34988D01*
X65848Y-35010D01*
X65734Y-35031D01*
X65648Y-35031D01*
X65534Y-35010D01*
X65477Y-34988D01*
X65419Y-34946D01*
X65391Y-34881D01*
X65391Y-34838D01*
X65419Y-34774D01*
X65448Y-34753D01*
X65991Y-34560D02*
X65391Y-34560D01*
X65391Y-34388D01*
X65419Y-34346D01*
X65448Y-34324D01*
X65505Y-34303D01*
X65591Y-34303D01*
X65648Y-34324D01*
X65677Y-34346D01*
X65705Y-34388D01*
X65705Y-34560D01*
X65448Y-34131D02*
X65419Y-34110D01*
X65391Y-34067D01*
X65391Y-33960D01*
X65419Y-33917D01*
X65448Y-33896D01*
X65505Y-33874D01*
X65562Y-33874D01*
X65648Y-33896D01*
X65991Y-34153D01*
X65991Y-33874D01*
X65391Y-33724D02*
X65391Y-33445D01*
X65619Y-33595D01*
X65619Y-33531D01*
X65648Y-33488D01*
X65677Y-33467D01*
X65734Y-33445D01*
X65877Y-33445D01*
X65934Y-33467D01*
X65962Y-33488D01*
X65991Y-33531D01*
X65991Y-33659D01*
X65962Y-33702D01*
X65934Y-33724D01*
X65391Y-33166D02*
X65391Y-33123D01*
X65419Y-33080D01*
X65448Y-33059D01*
X65505Y-33038D01*
X65619Y-33016D01*
X65762Y-33016D01*
X65877Y-33038D01*
X65934Y-33059D01*
X65962Y-33080D01*
X65991Y-33123D01*
X65991Y-33166D01*
X65962Y-33209D01*
X65934Y-33230D01*
X65877Y-33252D01*
X65762Y-33273D01*
X65619Y-33273D01*
X65505Y-33252D01*
X65448Y-33230D01*
X65419Y-33209D01*
X65391Y-33166D01*
X65991Y-32587D02*
X65991Y-32844D01*
X65991Y-32716D02*
X65391Y-32716D01*
X65477Y-32759D01*
X65534Y-32801D01*
X65562Y-32844D01*
X65391Y-32201D02*
X65391Y-32287D01*
X65419Y-32330D01*
X65448Y-32351D01*
X65534Y-32394D01*
X65648Y-32415D01*
X65877Y-32415D01*
X65934Y-32394D01*
X65962Y-32372D01*
X65991Y-32330D01*
X65991Y-32244D01*
X65962Y-32201D01*
X65934Y-32180D01*
X65877Y-32158D01*
X65734Y-32158D01*
X65677Y-32180D01*
X65648Y-32201D01*
X65619Y-32244D01*
X65619Y-32330D01*
X65648Y-32372D01*
X65677Y-32394D01*
X65734Y-32415D01*
G54D11*
X61626Y-32053D02*
X61645Y-32072D01*
X61664Y-32129D01*
X61664Y-32167D01*
X61645Y-32225D01*
X61607Y-32263D01*
X61569Y-32282D01*
X61492Y-32301D01*
X61435Y-32301D01*
X61359Y-32282D01*
X61321Y-32263D01*
X61283Y-32225D01*
X61264Y-32167D01*
X61264Y-32129D01*
X61283Y-32072D01*
X61302Y-32053D01*
X61664Y-31672D02*
X61664Y-31901D01*
X61664Y-31787D02*
X61264Y-31787D01*
X61321Y-31825D01*
X61359Y-31863D01*
X61378Y-31901D01*
M02*
