G04 (created by PCBNEW-RS274X (2012-apr-16-27)-stable) date Sa 15 Jun 2013 15:32:55 CEST*
G01*
G70*
G90*
%MOIN*%
G04 Gerber Fmt 3.4, Leading zero omitted, Abs format*
%FSLAX34Y34*%
G04 APERTURE LIST*
%ADD10C,0.006000*%
%ADD11C,0.055000*%
%ADD12R,0.060000X0.060000*%
%ADD13C,0.060000*%
%ADD14C,0.066000*%
%ADD15O,0.090000X0.062000*%
%ADD16R,0.090000X0.062000*%
%ADD17C,0.035000*%
%ADD18C,0.008000*%
%ADD19C,0.010000*%
G04 APERTURE END LIST*
G54D10*
G54D11*
X56571Y-40748D03*
X59571Y-40748D03*
X56571Y-37992D03*
X59571Y-37992D03*
X56571Y-35236D03*
X59571Y-35236D03*
X56571Y-32480D03*
X59571Y-32480D03*
X56571Y-29724D03*
X59571Y-29724D03*
X56571Y-26969D03*
X59571Y-26969D03*
X56571Y-24213D03*
X59571Y-24213D03*
X56571Y-21457D03*
X59571Y-21457D03*
X62402Y-37327D03*
X62402Y-34327D03*
X56571Y-44094D03*
X59571Y-44094D03*
G54D12*
X67051Y-41535D03*
G54D13*
X66051Y-41535D03*
X65051Y-41535D03*
X64051Y-41535D03*
G54D12*
X54634Y-44094D03*
G54D13*
X53634Y-44094D03*
G54D14*
X53535Y-40748D03*
X54535Y-40748D03*
X53535Y-37992D03*
X54535Y-37992D03*
X53535Y-35236D03*
X54535Y-35236D03*
X53535Y-32480D03*
X54535Y-32480D03*
X53535Y-29724D03*
X54535Y-29724D03*
X53535Y-26969D03*
X54535Y-26969D03*
X53535Y-24213D03*
X54535Y-24213D03*
X53535Y-21457D03*
X54535Y-21457D03*
G54D15*
X64248Y-25602D03*
X64248Y-26602D03*
X64248Y-27602D03*
X64248Y-28602D03*
X64248Y-29602D03*
X64248Y-30602D03*
X64248Y-31602D03*
X64248Y-32602D03*
X64248Y-33602D03*
X64248Y-34602D03*
X64248Y-35602D03*
X64248Y-36602D03*
X64248Y-37602D03*
G54D16*
X64248Y-24602D03*
G54D15*
X67248Y-37602D03*
X67248Y-36602D03*
X67248Y-35602D03*
X67248Y-34602D03*
X67248Y-33602D03*
X67248Y-32602D03*
X67248Y-31602D03*
X67248Y-30602D03*
X67248Y-29602D03*
X67248Y-28602D03*
X67248Y-27602D03*
X67248Y-26602D03*
X67248Y-25602D03*
X67248Y-24602D03*
G54D11*
X62402Y-32587D03*
X62402Y-31587D03*
G54D17*
X66142Y-39567D03*
X65748Y-37205D03*
G54D18*
X66142Y-39567D02*
X65748Y-39173D01*
X59571Y-37992D02*
X59571Y-35236D01*
X67248Y-33602D02*
X67248Y-34602D01*
X65748Y-39173D02*
X65748Y-37205D01*
X59571Y-26969D02*
X59571Y-29724D01*
X67248Y-34602D02*
X67248Y-35602D01*
X59571Y-32480D02*
X59571Y-29724D01*
X63859Y-24213D02*
X64248Y-24602D01*
X59571Y-35236D02*
X59571Y-32480D01*
X60464Y-31587D02*
X59571Y-32480D01*
X62402Y-31587D02*
X60464Y-31587D01*
X59571Y-24213D02*
X63859Y-24213D01*
X67248Y-35602D02*
X67248Y-36602D01*
X62402Y-31587D02*
X64233Y-31587D01*
X59571Y-21457D02*
X59571Y-24213D01*
X59571Y-24213D02*
X59571Y-26969D01*
X59571Y-29724D02*
X59571Y-40748D01*
X59571Y-40748D02*
X59571Y-44094D01*
X64233Y-31587D02*
X64248Y-31602D01*
X54535Y-29724D02*
X56571Y-29724D01*
X54535Y-21457D02*
X56571Y-21457D01*
X54535Y-24213D02*
X56571Y-24213D01*
X54535Y-40748D02*
X56571Y-40748D01*
X54535Y-37992D02*
X56571Y-37992D01*
X54535Y-35236D02*
X56571Y-35236D01*
X54535Y-32480D02*
X56571Y-32480D01*
X54634Y-44094D02*
X56571Y-44094D01*
X54535Y-26969D02*
X56571Y-26969D01*
X62402Y-34327D02*
X62402Y-32587D01*
X62402Y-32587D02*
X64233Y-32587D01*
X64233Y-32587D02*
X64248Y-32602D01*
X63704Y-44882D02*
X67051Y-41535D01*
X66339Y-33511D02*
X67248Y-32602D01*
X53937Y-44882D02*
X63704Y-44882D01*
X53634Y-44579D02*
X53937Y-44882D01*
X67051Y-41535D02*
X67051Y-39098D01*
X53634Y-44094D02*
X53634Y-44579D01*
X62402Y-38189D02*
X64370Y-40157D01*
X67051Y-39098D02*
X66339Y-38386D01*
X62402Y-37327D02*
X62402Y-38189D01*
X65673Y-40157D02*
X67051Y-41535D01*
X66339Y-38386D02*
X66339Y-33511D01*
X64370Y-40157D02*
X65673Y-40157D01*
G54D10*
G36*
X68769Y-45344D02*
X67950Y-45344D01*
X67950Y-37711D01*
X67950Y-37493D01*
X67866Y-37291D01*
X67712Y-37137D01*
X67632Y-37103D01*
X67798Y-36984D01*
X67913Y-36798D01*
X67930Y-36739D01*
X67930Y-36465D01*
X67913Y-36406D01*
X67798Y-36220D01*
X67634Y-36102D01*
X67798Y-35984D01*
X67913Y-35798D01*
X67930Y-35739D01*
X67930Y-35465D01*
X67913Y-35406D01*
X67798Y-35220D01*
X67634Y-35102D01*
X67798Y-34984D01*
X67913Y-34798D01*
X67930Y-34739D01*
X67930Y-34465D01*
X67913Y-34406D01*
X67798Y-34220D01*
X67634Y-34102D01*
X67798Y-33984D01*
X67913Y-33798D01*
X67930Y-33739D01*
X67883Y-33652D01*
X67298Y-33652D01*
X67298Y-34042D01*
X67298Y-34162D01*
X67298Y-34552D01*
X67883Y-34552D01*
X67930Y-34465D01*
X67930Y-34739D01*
X67883Y-34652D01*
X67298Y-34652D01*
X67298Y-35042D01*
X67298Y-35162D01*
X67298Y-35552D01*
X67883Y-35552D01*
X67930Y-35465D01*
X67930Y-35739D01*
X67883Y-35652D01*
X67298Y-35652D01*
X67298Y-36042D01*
X67298Y-36162D01*
X67298Y-36552D01*
X67883Y-36552D01*
X67930Y-36465D01*
X67930Y-36739D01*
X67883Y-36652D01*
X67348Y-36652D01*
X67298Y-36652D01*
X67198Y-36652D01*
X67198Y-36552D01*
X67198Y-36502D01*
X67198Y-36162D01*
X67198Y-36042D01*
X67198Y-35702D01*
X67198Y-35652D01*
X67198Y-35552D01*
X67198Y-35502D01*
X67198Y-35162D01*
X67198Y-35042D01*
X67198Y-34702D01*
X67198Y-34652D01*
X67198Y-34552D01*
X67198Y-34502D01*
X67198Y-34162D01*
X67198Y-34042D01*
X67198Y-33702D01*
X67198Y-33652D01*
X67198Y-33552D01*
X67298Y-33552D01*
X67348Y-33552D01*
X67883Y-33552D01*
X67930Y-33465D01*
X67913Y-33406D01*
X67798Y-33220D01*
X67632Y-33100D01*
X67712Y-33067D01*
X67866Y-32913D01*
X67950Y-32711D01*
X67950Y-32493D01*
X67866Y-32291D01*
X67712Y-32137D01*
X67627Y-32102D01*
X67712Y-32067D01*
X67866Y-31913D01*
X67950Y-31711D01*
X67950Y-31493D01*
X67866Y-31291D01*
X67712Y-31137D01*
X67627Y-31102D01*
X67712Y-31067D01*
X67866Y-30913D01*
X67950Y-30711D01*
X67950Y-30493D01*
X67866Y-30291D01*
X67712Y-30137D01*
X67627Y-30102D01*
X67712Y-30067D01*
X67866Y-29913D01*
X67950Y-29711D01*
X67950Y-29493D01*
X67866Y-29291D01*
X67712Y-29137D01*
X67627Y-29102D01*
X67712Y-29067D01*
X67866Y-28913D01*
X67950Y-28711D01*
X67950Y-28493D01*
X67866Y-28291D01*
X67712Y-28137D01*
X67627Y-28102D01*
X67712Y-28067D01*
X67866Y-27913D01*
X67950Y-27711D01*
X67950Y-27493D01*
X67866Y-27291D01*
X67712Y-27137D01*
X67627Y-27102D01*
X67712Y-27067D01*
X67866Y-26913D01*
X67950Y-26711D01*
X67950Y-26493D01*
X67866Y-26291D01*
X67712Y-26137D01*
X67627Y-26102D01*
X67712Y-26067D01*
X67866Y-25913D01*
X67950Y-25711D01*
X67950Y-25493D01*
X67866Y-25291D01*
X67712Y-25137D01*
X67627Y-25102D01*
X67712Y-25067D01*
X67866Y-24913D01*
X67950Y-24711D01*
X67950Y-24493D01*
X67866Y-24291D01*
X67712Y-24137D01*
X67510Y-24053D01*
X67292Y-24053D01*
X66986Y-24053D01*
X66784Y-24137D01*
X66630Y-24291D01*
X66546Y-24493D01*
X66546Y-24711D01*
X66630Y-24913D01*
X66784Y-25067D01*
X66868Y-25102D01*
X66784Y-25137D01*
X66630Y-25291D01*
X66546Y-25493D01*
X66546Y-25711D01*
X66630Y-25913D01*
X66784Y-26067D01*
X66868Y-26102D01*
X66784Y-26137D01*
X66630Y-26291D01*
X66546Y-26493D01*
X66546Y-26711D01*
X66630Y-26913D01*
X66784Y-27067D01*
X66868Y-27102D01*
X66784Y-27137D01*
X66630Y-27291D01*
X66546Y-27493D01*
X66546Y-27711D01*
X66630Y-27913D01*
X66784Y-28067D01*
X66868Y-28102D01*
X66784Y-28137D01*
X66630Y-28291D01*
X66546Y-28493D01*
X66546Y-28711D01*
X66630Y-28913D01*
X66784Y-29067D01*
X66868Y-29102D01*
X66784Y-29137D01*
X66630Y-29291D01*
X66546Y-29493D01*
X66546Y-29711D01*
X66630Y-29913D01*
X66784Y-30067D01*
X66868Y-30102D01*
X66784Y-30137D01*
X66630Y-30291D01*
X66546Y-30493D01*
X66546Y-30711D01*
X66630Y-30913D01*
X66784Y-31067D01*
X66868Y-31102D01*
X66784Y-31137D01*
X66630Y-31291D01*
X66546Y-31493D01*
X66546Y-31711D01*
X66630Y-31913D01*
X66784Y-32067D01*
X66868Y-32102D01*
X66784Y-32137D01*
X66630Y-32291D01*
X66546Y-32493D01*
X66546Y-32711D01*
X66599Y-32840D01*
X66134Y-33306D01*
X66071Y-33400D01*
X66049Y-33511D01*
X66049Y-38386D01*
X66071Y-38497D01*
X66134Y-38591D01*
X66761Y-39218D01*
X66761Y-40834D01*
X65878Y-39952D01*
X65784Y-39889D01*
X65673Y-39867D01*
X64950Y-39867D01*
X64950Y-37711D01*
X64950Y-37493D01*
X64866Y-37291D01*
X64712Y-37137D01*
X64627Y-37102D01*
X64712Y-37067D01*
X64866Y-36913D01*
X64950Y-36711D01*
X64950Y-36493D01*
X64866Y-36291D01*
X64712Y-36137D01*
X64627Y-36102D01*
X64712Y-36067D01*
X64866Y-35913D01*
X64950Y-35711D01*
X64950Y-35493D01*
X64866Y-35291D01*
X64712Y-35137D01*
X64627Y-35102D01*
X64712Y-35067D01*
X64866Y-34913D01*
X64950Y-34711D01*
X64950Y-34493D01*
X64866Y-34291D01*
X64712Y-34137D01*
X64627Y-34102D01*
X64712Y-34067D01*
X64866Y-33913D01*
X64950Y-33711D01*
X64950Y-33493D01*
X64866Y-33291D01*
X64712Y-33137D01*
X64627Y-33102D01*
X64712Y-33067D01*
X64866Y-32913D01*
X64950Y-32711D01*
X64950Y-32493D01*
X64950Y-30711D01*
X64950Y-30493D01*
X64866Y-30291D01*
X64712Y-30137D01*
X64627Y-30102D01*
X64712Y-30067D01*
X64866Y-29913D01*
X64950Y-29711D01*
X64950Y-29493D01*
X64866Y-29291D01*
X64712Y-29137D01*
X64627Y-29102D01*
X64712Y-29067D01*
X64866Y-28913D01*
X64950Y-28711D01*
X64950Y-28493D01*
X64866Y-28291D01*
X64712Y-28137D01*
X64627Y-28102D01*
X64712Y-28067D01*
X64866Y-27913D01*
X64950Y-27711D01*
X64950Y-27493D01*
X64866Y-27291D01*
X64712Y-27137D01*
X64627Y-27102D01*
X64712Y-27067D01*
X64866Y-26913D01*
X64950Y-26711D01*
X64950Y-26493D01*
X64866Y-26291D01*
X64712Y-26137D01*
X64627Y-26102D01*
X64712Y-26067D01*
X64866Y-25913D01*
X64950Y-25711D01*
X64950Y-25493D01*
X64866Y-25291D01*
X64736Y-25161D01*
X64748Y-25161D01*
X64839Y-25123D01*
X64909Y-25053D01*
X64947Y-24961D01*
X64948Y-24714D01*
X64948Y-24490D01*
X64947Y-24243D01*
X64909Y-24151D01*
X64839Y-24081D01*
X64748Y-24043D01*
X64649Y-24043D01*
X64360Y-24042D01*
X64298Y-24104D01*
X64298Y-24552D01*
X64886Y-24552D01*
X64948Y-24490D01*
X64948Y-24714D01*
X64886Y-24652D01*
X64348Y-24652D01*
X64298Y-24652D01*
X64198Y-24652D01*
X64198Y-24552D01*
X64198Y-24104D01*
X64136Y-24042D01*
X63847Y-24043D01*
X63748Y-24043D01*
X63657Y-24081D01*
X63587Y-24151D01*
X63549Y-24243D01*
X63548Y-24490D01*
X63610Y-24552D01*
X64198Y-24552D01*
X64198Y-24652D01*
X64148Y-24652D01*
X63610Y-24652D01*
X63548Y-24714D01*
X63549Y-24961D01*
X63587Y-25053D01*
X63657Y-25123D01*
X63748Y-25161D01*
X63760Y-25161D01*
X63630Y-25291D01*
X63546Y-25493D01*
X63546Y-25711D01*
X63630Y-25913D01*
X63784Y-26067D01*
X63868Y-26102D01*
X63784Y-26137D01*
X63630Y-26291D01*
X63546Y-26493D01*
X63546Y-26711D01*
X63630Y-26913D01*
X63784Y-27067D01*
X63868Y-27102D01*
X63784Y-27137D01*
X63630Y-27291D01*
X63546Y-27493D01*
X63546Y-27711D01*
X63630Y-27913D01*
X63784Y-28067D01*
X63868Y-28102D01*
X63784Y-28137D01*
X63630Y-28291D01*
X63546Y-28493D01*
X63546Y-28711D01*
X63630Y-28913D01*
X63784Y-29067D01*
X63868Y-29102D01*
X63784Y-29137D01*
X63630Y-29291D01*
X63546Y-29493D01*
X63546Y-29711D01*
X63630Y-29913D01*
X63784Y-30067D01*
X63868Y-30102D01*
X63784Y-30137D01*
X63630Y-30291D01*
X63546Y-30493D01*
X63546Y-30711D01*
X63630Y-30913D01*
X63784Y-31067D01*
X63863Y-31100D01*
X63698Y-31220D01*
X63583Y-31406D01*
X63566Y-31465D01*
X63613Y-31552D01*
X64148Y-31552D01*
X64198Y-31552D01*
X64298Y-31552D01*
X64348Y-31552D01*
X64883Y-31552D01*
X64930Y-31465D01*
X64913Y-31406D01*
X64798Y-31220D01*
X64632Y-31100D01*
X64712Y-31067D01*
X64866Y-30913D01*
X64950Y-30711D01*
X64950Y-32493D01*
X64866Y-32291D01*
X64712Y-32137D01*
X64632Y-32103D01*
X64798Y-31984D01*
X64913Y-31798D01*
X64930Y-31739D01*
X64883Y-31652D01*
X64348Y-31652D01*
X64298Y-31652D01*
X64198Y-31652D01*
X64148Y-31652D01*
X63613Y-31652D01*
X63566Y-31739D01*
X63583Y-31798D01*
X63698Y-31984D01*
X63863Y-32103D01*
X63784Y-32137D01*
X63630Y-32291D01*
X63627Y-32297D01*
X62921Y-32297D01*
X62921Y-31661D01*
X62910Y-31457D01*
X62854Y-31320D01*
X62763Y-31297D01*
X62692Y-31368D01*
X62692Y-31226D01*
X62669Y-31135D01*
X62476Y-31068D01*
X62272Y-31079D01*
X62135Y-31135D01*
X62112Y-31226D01*
X62402Y-31516D01*
X62692Y-31226D01*
X62692Y-31368D01*
X62473Y-31587D01*
X62763Y-31877D01*
X62854Y-31854D01*
X62921Y-31661D01*
X62921Y-32297D01*
X62849Y-32297D01*
X62847Y-32290D01*
X62700Y-32142D01*
X62559Y-32083D01*
X62669Y-32039D01*
X62692Y-31948D01*
X62402Y-31658D01*
X62331Y-31729D01*
X62331Y-31587D01*
X62041Y-31297D01*
X61950Y-31320D01*
X61883Y-31513D01*
X61894Y-31717D01*
X61950Y-31854D01*
X62041Y-31877D01*
X62331Y-31587D01*
X62331Y-31729D01*
X62112Y-31948D01*
X62135Y-32039D01*
X62253Y-32080D01*
X62105Y-32142D01*
X61957Y-32289D01*
X61877Y-32482D01*
X61877Y-32691D01*
X61957Y-32884D01*
X62104Y-33032D01*
X62112Y-33035D01*
X62112Y-33879D01*
X62105Y-33882D01*
X61957Y-34029D01*
X61877Y-34222D01*
X61877Y-34431D01*
X61957Y-34624D01*
X62104Y-34772D01*
X62297Y-34852D01*
X62506Y-34852D01*
X62699Y-34772D01*
X62847Y-34625D01*
X62927Y-34432D01*
X62927Y-34223D01*
X62847Y-34030D01*
X62700Y-33882D01*
X62692Y-33878D01*
X62692Y-33034D01*
X62699Y-33032D01*
X62847Y-32885D01*
X62850Y-32877D01*
X63615Y-32877D01*
X63630Y-32913D01*
X63784Y-33067D01*
X63868Y-33102D01*
X63784Y-33137D01*
X63630Y-33291D01*
X63546Y-33493D01*
X63546Y-33711D01*
X63630Y-33913D01*
X63784Y-34067D01*
X63868Y-34102D01*
X63784Y-34137D01*
X63630Y-34291D01*
X63546Y-34493D01*
X63546Y-34711D01*
X63630Y-34913D01*
X63784Y-35067D01*
X63868Y-35102D01*
X63784Y-35137D01*
X63630Y-35291D01*
X63546Y-35493D01*
X63546Y-35711D01*
X63630Y-35913D01*
X63784Y-36067D01*
X63868Y-36102D01*
X63784Y-36137D01*
X63630Y-36291D01*
X63546Y-36493D01*
X63546Y-36711D01*
X63630Y-36913D01*
X63784Y-37067D01*
X63868Y-37102D01*
X63784Y-37137D01*
X63630Y-37291D01*
X63546Y-37493D01*
X63546Y-37711D01*
X63630Y-37913D01*
X63784Y-38067D01*
X63986Y-38151D01*
X64204Y-38151D01*
X64510Y-38151D01*
X64712Y-38067D01*
X64866Y-37913D01*
X64950Y-37711D01*
X64950Y-39867D01*
X64490Y-39867D01*
X62692Y-38069D01*
X62692Y-37774D01*
X62699Y-37772D01*
X62847Y-37625D01*
X62927Y-37432D01*
X62927Y-37223D01*
X62847Y-37030D01*
X62700Y-36882D01*
X62507Y-36802D01*
X62298Y-36802D01*
X62105Y-36882D01*
X61957Y-37029D01*
X61877Y-37222D01*
X61877Y-37431D01*
X61957Y-37624D01*
X62104Y-37772D01*
X62112Y-37775D01*
X62112Y-38189D01*
X62134Y-38300D01*
X62197Y-38394D01*
X64165Y-40362D01*
X64259Y-40425D01*
X64370Y-40447D01*
X65552Y-40447D01*
X66099Y-40993D01*
X65917Y-41003D01*
X65770Y-41063D01*
X65743Y-41157D01*
X66016Y-41429D01*
X66051Y-41464D01*
X66122Y-41535D01*
X66051Y-41606D01*
X65980Y-41676D01*
X65980Y-41535D01*
X65673Y-41227D01*
X65579Y-41254D01*
X65555Y-41319D01*
X65516Y-41224D01*
X65362Y-41070D01*
X65160Y-40986D01*
X64942Y-40986D01*
X64740Y-41070D01*
X64586Y-41224D01*
X64551Y-41308D01*
X64516Y-41224D01*
X64362Y-41070D01*
X64160Y-40986D01*
X63942Y-40986D01*
X63740Y-41070D01*
X63586Y-41224D01*
X63502Y-41426D01*
X63502Y-41644D01*
X63586Y-41846D01*
X63740Y-42000D01*
X63942Y-42084D01*
X64160Y-42084D01*
X64362Y-42000D01*
X64516Y-41846D01*
X64551Y-41761D01*
X64586Y-41846D01*
X64740Y-42000D01*
X64942Y-42084D01*
X65160Y-42084D01*
X65362Y-42000D01*
X65516Y-41846D01*
X65553Y-41754D01*
X65579Y-41816D01*
X65673Y-41843D01*
X65980Y-41535D01*
X65980Y-41676D01*
X65743Y-41913D01*
X65770Y-42007D01*
X65972Y-42078D01*
X66104Y-42071D01*
X63584Y-44592D01*
X60090Y-44592D01*
X60090Y-44168D01*
X60090Y-40822D01*
X60090Y-38066D01*
X60090Y-35310D01*
X60090Y-32554D01*
X60090Y-29798D01*
X60090Y-27043D01*
X60090Y-24287D01*
X60090Y-21531D01*
X60079Y-21327D01*
X60023Y-21190D01*
X59932Y-21167D01*
X59861Y-21238D01*
X59861Y-21096D01*
X59838Y-21005D01*
X59645Y-20938D01*
X59441Y-20949D01*
X59304Y-21005D01*
X59281Y-21096D01*
X59571Y-21386D01*
X59861Y-21096D01*
X59861Y-21238D01*
X59642Y-21457D01*
X59932Y-21747D01*
X60023Y-21724D01*
X60090Y-21531D01*
X60090Y-24287D01*
X60079Y-24083D01*
X60023Y-23946D01*
X59932Y-23923D01*
X59861Y-23994D01*
X59861Y-23852D01*
X59861Y-21818D01*
X59571Y-21528D01*
X59500Y-21599D01*
X59500Y-21457D01*
X59210Y-21167D01*
X59119Y-21190D01*
X59052Y-21383D01*
X59063Y-21587D01*
X59119Y-21724D01*
X59210Y-21747D01*
X59500Y-21457D01*
X59500Y-21599D01*
X59281Y-21818D01*
X59304Y-21909D01*
X59497Y-21976D01*
X59701Y-21965D01*
X59838Y-21909D01*
X59861Y-21818D01*
X59861Y-23852D01*
X59838Y-23761D01*
X59645Y-23694D01*
X59441Y-23705D01*
X59304Y-23761D01*
X59281Y-23852D01*
X59571Y-24142D01*
X59861Y-23852D01*
X59861Y-23994D01*
X59642Y-24213D01*
X59932Y-24503D01*
X60023Y-24480D01*
X60090Y-24287D01*
X60090Y-27043D01*
X60079Y-26839D01*
X60023Y-26702D01*
X59932Y-26679D01*
X59861Y-26750D01*
X59861Y-26608D01*
X59861Y-24574D01*
X59571Y-24284D01*
X59500Y-24355D01*
X59500Y-24213D01*
X59210Y-23923D01*
X59119Y-23946D01*
X59052Y-24139D01*
X59063Y-24343D01*
X59119Y-24480D01*
X59210Y-24503D01*
X59500Y-24213D01*
X59500Y-24355D01*
X59281Y-24574D01*
X59304Y-24665D01*
X59497Y-24732D01*
X59701Y-24721D01*
X59838Y-24665D01*
X59861Y-24574D01*
X59861Y-26608D01*
X59838Y-26517D01*
X59645Y-26450D01*
X59441Y-26461D01*
X59304Y-26517D01*
X59281Y-26608D01*
X59571Y-26898D01*
X59861Y-26608D01*
X59861Y-26750D01*
X59642Y-26969D01*
X59932Y-27259D01*
X60023Y-27236D01*
X60090Y-27043D01*
X60090Y-29798D01*
X60079Y-29594D01*
X60023Y-29457D01*
X59932Y-29434D01*
X59861Y-29505D01*
X59861Y-29363D01*
X59861Y-27330D01*
X59571Y-27040D01*
X59500Y-27111D01*
X59500Y-26969D01*
X59210Y-26679D01*
X59119Y-26702D01*
X59052Y-26895D01*
X59063Y-27099D01*
X59119Y-27236D01*
X59210Y-27259D01*
X59500Y-26969D01*
X59500Y-27111D01*
X59281Y-27330D01*
X59304Y-27421D01*
X59497Y-27488D01*
X59701Y-27477D01*
X59838Y-27421D01*
X59861Y-27330D01*
X59861Y-29363D01*
X59838Y-29272D01*
X59645Y-29205D01*
X59441Y-29216D01*
X59304Y-29272D01*
X59281Y-29363D01*
X59571Y-29653D01*
X59861Y-29363D01*
X59861Y-29505D01*
X59642Y-29724D01*
X59932Y-30014D01*
X60023Y-29991D01*
X60090Y-29798D01*
X60090Y-32554D01*
X60079Y-32350D01*
X60023Y-32213D01*
X59932Y-32190D01*
X59861Y-32261D01*
X59861Y-32119D01*
X59861Y-30085D01*
X59571Y-29795D01*
X59500Y-29866D01*
X59500Y-29724D01*
X59210Y-29434D01*
X59119Y-29457D01*
X59052Y-29650D01*
X59063Y-29854D01*
X59119Y-29991D01*
X59210Y-30014D01*
X59500Y-29724D01*
X59500Y-29866D01*
X59281Y-30085D01*
X59304Y-30176D01*
X59497Y-30243D01*
X59701Y-30232D01*
X59838Y-30176D01*
X59861Y-30085D01*
X59861Y-32119D01*
X59838Y-32028D01*
X59645Y-31961D01*
X59441Y-31972D01*
X59304Y-32028D01*
X59281Y-32119D01*
X59571Y-32409D01*
X59861Y-32119D01*
X59861Y-32261D01*
X59642Y-32480D01*
X59932Y-32770D01*
X60023Y-32747D01*
X60090Y-32554D01*
X60090Y-35310D01*
X60079Y-35106D01*
X60023Y-34969D01*
X59932Y-34946D01*
X59861Y-35017D01*
X59861Y-34875D01*
X59861Y-32841D01*
X59571Y-32551D01*
X59500Y-32622D01*
X59500Y-32480D01*
X59210Y-32190D01*
X59119Y-32213D01*
X59052Y-32406D01*
X59063Y-32610D01*
X59119Y-32747D01*
X59210Y-32770D01*
X59500Y-32480D01*
X59500Y-32622D01*
X59281Y-32841D01*
X59304Y-32932D01*
X59497Y-32999D01*
X59701Y-32988D01*
X59838Y-32932D01*
X59861Y-32841D01*
X59861Y-34875D01*
X59838Y-34784D01*
X59645Y-34717D01*
X59441Y-34728D01*
X59304Y-34784D01*
X59281Y-34875D01*
X59571Y-35165D01*
X59861Y-34875D01*
X59861Y-35017D01*
X59642Y-35236D01*
X59932Y-35526D01*
X60023Y-35503D01*
X60090Y-35310D01*
X60090Y-38066D01*
X60079Y-37862D01*
X60023Y-37725D01*
X59932Y-37702D01*
X59861Y-37773D01*
X59861Y-37631D01*
X59861Y-35597D01*
X59571Y-35307D01*
X59500Y-35378D01*
X59500Y-35236D01*
X59210Y-34946D01*
X59119Y-34969D01*
X59052Y-35162D01*
X59063Y-35366D01*
X59119Y-35503D01*
X59210Y-35526D01*
X59500Y-35236D01*
X59500Y-35378D01*
X59281Y-35597D01*
X59304Y-35688D01*
X59497Y-35755D01*
X59701Y-35744D01*
X59838Y-35688D01*
X59861Y-35597D01*
X59861Y-37631D01*
X59838Y-37540D01*
X59645Y-37473D01*
X59441Y-37484D01*
X59304Y-37540D01*
X59281Y-37631D01*
X59571Y-37921D01*
X59861Y-37631D01*
X59861Y-37773D01*
X59642Y-37992D01*
X59932Y-38282D01*
X60023Y-38259D01*
X60090Y-38066D01*
X60090Y-40822D01*
X60079Y-40618D01*
X60023Y-40481D01*
X59932Y-40458D01*
X59861Y-40529D01*
X59861Y-40387D01*
X59861Y-38353D01*
X59571Y-38063D01*
X59500Y-38134D01*
X59500Y-37992D01*
X59210Y-37702D01*
X59119Y-37725D01*
X59052Y-37918D01*
X59063Y-38122D01*
X59119Y-38259D01*
X59210Y-38282D01*
X59500Y-37992D01*
X59500Y-38134D01*
X59281Y-38353D01*
X59304Y-38444D01*
X59497Y-38511D01*
X59701Y-38500D01*
X59838Y-38444D01*
X59861Y-38353D01*
X59861Y-40387D01*
X59838Y-40296D01*
X59645Y-40229D01*
X59441Y-40240D01*
X59304Y-40296D01*
X59281Y-40387D01*
X59571Y-40677D01*
X59861Y-40387D01*
X59861Y-40529D01*
X59642Y-40748D01*
X59932Y-41038D01*
X60023Y-41015D01*
X60090Y-40822D01*
X60090Y-44168D01*
X60079Y-43964D01*
X60023Y-43827D01*
X59932Y-43804D01*
X59861Y-43875D01*
X59861Y-43733D01*
X59861Y-41109D01*
X59571Y-40819D01*
X59500Y-40890D01*
X59500Y-40748D01*
X59210Y-40458D01*
X59119Y-40481D01*
X59052Y-40674D01*
X59063Y-40878D01*
X59119Y-41015D01*
X59210Y-41038D01*
X59500Y-40748D01*
X59500Y-40890D01*
X59281Y-41109D01*
X59304Y-41200D01*
X59497Y-41267D01*
X59701Y-41256D01*
X59838Y-41200D01*
X59861Y-41109D01*
X59861Y-43733D01*
X59838Y-43642D01*
X59645Y-43575D01*
X59441Y-43586D01*
X59304Y-43642D01*
X59281Y-43733D01*
X59571Y-44023D01*
X59861Y-43733D01*
X59861Y-43875D01*
X59642Y-44094D01*
X59932Y-44384D01*
X60023Y-44361D01*
X60090Y-44168D01*
X60090Y-44592D01*
X59725Y-44592D01*
X59838Y-44546D01*
X59861Y-44455D01*
X59571Y-44165D01*
X59500Y-44236D01*
X59500Y-44094D01*
X59210Y-43804D01*
X59119Y-43827D01*
X59052Y-44020D01*
X59063Y-44224D01*
X59119Y-44361D01*
X59210Y-44384D01*
X59500Y-44094D01*
X59500Y-44236D01*
X59281Y-44455D01*
X59304Y-44546D01*
X59436Y-44592D01*
X56740Y-44592D01*
X56868Y-44539D01*
X57016Y-44392D01*
X57096Y-44199D01*
X57096Y-43990D01*
X57096Y-40853D01*
X57096Y-40644D01*
X57096Y-38097D01*
X57096Y-37888D01*
X57096Y-35341D01*
X57096Y-35132D01*
X57096Y-32585D01*
X57096Y-32376D01*
X57096Y-29829D01*
X57096Y-29620D01*
X57096Y-27074D01*
X57096Y-26865D01*
X57096Y-24318D01*
X57096Y-24109D01*
X57096Y-21562D01*
X57096Y-21353D01*
X57016Y-21160D01*
X56869Y-21012D01*
X56676Y-20932D01*
X56467Y-20932D01*
X56274Y-21012D01*
X56126Y-21159D01*
X56122Y-21167D01*
X55042Y-21167D01*
X55027Y-21129D01*
X54864Y-20966D01*
X54651Y-20877D01*
X54420Y-20877D01*
X54207Y-20965D01*
X54044Y-21128D01*
X54035Y-21148D01*
X54027Y-21129D01*
X53864Y-20966D01*
X53651Y-20877D01*
X53420Y-20877D01*
X53207Y-20965D01*
X53044Y-21128D01*
X52955Y-21341D01*
X52955Y-21572D01*
X53043Y-21785D01*
X53206Y-21948D01*
X53419Y-22037D01*
X53650Y-22037D01*
X53863Y-21949D01*
X54026Y-21786D01*
X54034Y-21765D01*
X54043Y-21785D01*
X54206Y-21948D01*
X54419Y-22037D01*
X54650Y-22037D01*
X54863Y-21949D01*
X55026Y-21786D01*
X55042Y-21747D01*
X56123Y-21747D01*
X56126Y-21754D01*
X56273Y-21902D01*
X56466Y-21982D01*
X56675Y-21982D01*
X56868Y-21902D01*
X57016Y-21755D01*
X57096Y-21562D01*
X57096Y-24109D01*
X57016Y-23916D01*
X56869Y-23768D01*
X56676Y-23688D01*
X56467Y-23688D01*
X56274Y-23768D01*
X56126Y-23915D01*
X56122Y-23923D01*
X55042Y-23923D01*
X55027Y-23885D01*
X54864Y-23722D01*
X54651Y-23633D01*
X54420Y-23633D01*
X54207Y-23721D01*
X54044Y-23884D01*
X54035Y-23904D01*
X54027Y-23885D01*
X53864Y-23722D01*
X53651Y-23633D01*
X53420Y-23633D01*
X53207Y-23721D01*
X53044Y-23884D01*
X52955Y-24097D01*
X52955Y-24328D01*
X53043Y-24541D01*
X53206Y-24704D01*
X53419Y-24793D01*
X53650Y-24793D01*
X53863Y-24705D01*
X54026Y-24542D01*
X54034Y-24521D01*
X54043Y-24541D01*
X54206Y-24704D01*
X54419Y-24793D01*
X54650Y-24793D01*
X54863Y-24705D01*
X55026Y-24542D01*
X55042Y-24503D01*
X56123Y-24503D01*
X56126Y-24510D01*
X56273Y-24658D01*
X56466Y-24738D01*
X56675Y-24738D01*
X56868Y-24658D01*
X57016Y-24511D01*
X57096Y-24318D01*
X57096Y-26865D01*
X57016Y-26672D01*
X56869Y-26524D01*
X56676Y-26444D01*
X56467Y-26444D01*
X56274Y-26524D01*
X56126Y-26671D01*
X56122Y-26679D01*
X55042Y-26679D01*
X55027Y-26641D01*
X54864Y-26478D01*
X54651Y-26389D01*
X54420Y-26389D01*
X54207Y-26477D01*
X54044Y-26640D01*
X54035Y-26660D01*
X54027Y-26641D01*
X53864Y-26478D01*
X53651Y-26389D01*
X53420Y-26389D01*
X53207Y-26477D01*
X53044Y-26640D01*
X52955Y-26853D01*
X52955Y-27084D01*
X53043Y-27297D01*
X53206Y-27460D01*
X53419Y-27549D01*
X53650Y-27549D01*
X53863Y-27461D01*
X54026Y-27298D01*
X54034Y-27277D01*
X54043Y-27297D01*
X54206Y-27460D01*
X54419Y-27549D01*
X54650Y-27549D01*
X54863Y-27461D01*
X55026Y-27298D01*
X55042Y-27259D01*
X56123Y-27259D01*
X56126Y-27266D01*
X56273Y-27414D01*
X56466Y-27494D01*
X56675Y-27494D01*
X56868Y-27414D01*
X57016Y-27267D01*
X57096Y-27074D01*
X57096Y-29620D01*
X57016Y-29427D01*
X56869Y-29279D01*
X56676Y-29199D01*
X56467Y-29199D01*
X56274Y-29279D01*
X56126Y-29426D01*
X56122Y-29434D01*
X55042Y-29434D01*
X55027Y-29396D01*
X54864Y-29233D01*
X54651Y-29144D01*
X54420Y-29144D01*
X54207Y-29232D01*
X54044Y-29395D01*
X54035Y-29415D01*
X54027Y-29396D01*
X53864Y-29233D01*
X53651Y-29144D01*
X53420Y-29144D01*
X53207Y-29232D01*
X53044Y-29395D01*
X52955Y-29608D01*
X52955Y-29839D01*
X53043Y-30052D01*
X53206Y-30215D01*
X53419Y-30304D01*
X53650Y-30304D01*
X53863Y-30216D01*
X54026Y-30053D01*
X54034Y-30032D01*
X54043Y-30052D01*
X54206Y-30215D01*
X54419Y-30304D01*
X54650Y-30304D01*
X54863Y-30216D01*
X55026Y-30053D01*
X55042Y-30014D01*
X56123Y-30014D01*
X56126Y-30021D01*
X56273Y-30169D01*
X56466Y-30249D01*
X56675Y-30249D01*
X56868Y-30169D01*
X57016Y-30022D01*
X57096Y-29829D01*
X57096Y-32376D01*
X57016Y-32183D01*
X56869Y-32035D01*
X56676Y-31955D01*
X56467Y-31955D01*
X56274Y-32035D01*
X56126Y-32182D01*
X56122Y-32190D01*
X55042Y-32190D01*
X55027Y-32152D01*
X54864Y-31989D01*
X54651Y-31900D01*
X54420Y-31900D01*
X54207Y-31988D01*
X54044Y-32151D01*
X54035Y-32171D01*
X54027Y-32152D01*
X53864Y-31989D01*
X53651Y-31900D01*
X53420Y-31900D01*
X53207Y-31988D01*
X53044Y-32151D01*
X52955Y-32364D01*
X52955Y-32595D01*
X53043Y-32808D01*
X53206Y-32971D01*
X53419Y-33060D01*
X53650Y-33060D01*
X53863Y-32972D01*
X54026Y-32809D01*
X54034Y-32788D01*
X54043Y-32808D01*
X54206Y-32971D01*
X54419Y-33060D01*
X54650Y-33060D01*
X54863Y-32972D01*
X55026Y-32809D01*
X55042Y-32770D01*
X56123Y-32770D01*
X56126Y-32777D01*
X56273Y-32925D01*
X56466Y-33005D01*
X56675Y-33005D01*
X56868Y-32925D01*
X57016Y-32778D01*
X57096Y-32585D01*
X57096Y-35132D01*
X57016Y-34939D01*
X56869Y-34791D01*
X56676Y-34711D01*
X56467Y-34711D01*
X56274Y-34791D01*
X56126Y-34938D01*
X56122Y-34946D01*
X55042Y-34946D01*
X55027Y-34908D01*
X54864Y-34745D01*
X54651Y-34656D01*
X54420Y-34656D01*
X54207Y-34744D01*
X54044Y-34907D01*
X54035Y-34927D01*
X54027Y-34908D01*
X53864Y-34745D01*
X53651Y-34656D01*
X53420Y-34656D01*
X53207Y-34744D01*
X53044Y-34907D01*
X52955Y-35120D01*
X52955Y-35351D01*
X53043Y-35564D01*
X53206Y-35727D01*
X53419Y-35816D01*
X53650Y-35816D01*
X53863Y-35728D01*
X54026Y-35565D01*
X54034Y-35544D01*
X54043Y-35564D01*
X54206Y-35727D01*
X54419Y-35816D01*
X54650Y-35816D01*
X54863Y-35728D01*
X55026Y-35565D01*
X55042Y-35526D01*
X56123Y-35526D01*
X56126Y-35533D01*
X56273Y-35681D01*
X56466Y-35761D01*
X56675Y-35761D01*
X56868Y-35681D01*
X57016Y-35534D01*
X57096Y-35341D01*
X57096Y-37888D01*
X57016Y-37695D01*
X56869Y-37547D01*
X56676Y-37467D01*
X56467Y-37467D01*
X56274Y-37547D01*
X56126Y-37694D01*
X56122Y-37702D01*
X55042Y-37702D01*
X55027Y-37664D01*
X54864Y-37501D01*
X54651Y-37412D01*
X54420Y-37412D01*
X54207Y-37500D01*
X54044Y-37663D01*
X54035Y-37683D01*
X54027Y-37664D01*
X53864Y-37501D01*
X53651Y-37412D01*
X53420Y-37412D01*
X53207Y-37500D01*
X53044Y-37663D01*
X52955Y-37876D01*
X52955Y-38107D01*
X53043Y-38320D01*
X53206Y-38483D01*
X53419Y-38572D01*
X53650Y-38572D01*
X53863Y-38484D01*
X54026Y-38321D01*
X54034Y-38300D01*
X54043Y-38320D01*
X54206Y-38483D01*
X54419Y-38572D01*
X54650Y-38572D01*
X54863Y-38484D01*
X55026Y-38321D01*
X55042Y-38282D01*
X56123Y-38282D01*
X56126Y-38289D01*
X56273Y-38437D01*
X56466Y-38517D01*
X56675Y-38517D01*
X56868Y-38437D01*
X57016Y-38290D01*
X57096Y-38097D01*
X57096Y-40644D01*
X57016Y-40451D01*
X56869Y-40303D01*
X56676Y-40223D01*
X56467Y-40223D01*
X56274Y-40303D01*
X56126Y-40450D01*
X56122Y-40458D01*
X55042Y-40458D01*
X55027Y-40420D01*
X54864Y-40257D01*
X54651Y-40168D01*
X54420Y-40168D01*
X54207Y-40256D01*
X54044Y-40419D01*
X54035Y-40439D01*
X54027Y-40420D01*
X53864Y-40257D01*
X53651Y-40168D01*
X53420Y-40168D01*
X53207Y-40256D01*
X53044Y-40419D01*
X52955Y-40632D01*
X52955Y-40863D01*
X53043Y-41076D01*
X53206Y-41239D01*
X53419Y-41328D01*
X53650Y-41328D01*
X53863Y-41240D01*
X54026Y-41077D01*
X54034Y-41056D01*
X54043Y-41076D01*
X54206Y-41239D01*
X54419Y-41328D01*
X54650Y-41328D01*
X54863Y-41240D01*
X55026Y-41077D01*
X55042Y-41038D01*
X56123Y-41038D01*
X56126Y-41045D01*
X56273Y-41193D01*
X56466Y-41273D01*
X56675Y-41273D01*
X56868Y-41193D01*
X57016Y-41046D01*
X57096Y-40853D01*
X57096Y-43990D01*
X57016Y-43797D01*
X56869Y-43649D01*
X56676Y-43569D01*
X56467Y-43569D01*
X56274Y-43649D01*
X56126Y-43796D01*
X56122Y-43804D01*
X55183Y-43804D01*
X55183Y-43745D01*
X55145Y-43653D01*
X55075Y-43583D01*
X54984Y-43545D01*
X54885Y-43545D01*
X54285Y-43545D01*
X54193Y-43583D01*
X54123Y-43653D01*
X54085Y-43744D01*
X54085Y-43769D01*
X53945Y-43629D01*
X53743Y-43545D01*
X53525Y-43545D01*
X53323Y-43629D01*
X53169Y-43783D01*
X53085Y-43985D01*
X53085Y-44203D01*
X53169Y-44405D01*
X53323Y-44559D01*
X53344Y-44567D01*
X53344Y-44579D01*
X53366Y-44690D01*
X53429Y-44784D01*
X53732Y-45087D01*
X53826Y-45150D01*
X53937Y-45172D01*
X63704Y-45172D01*
X63815Y-45150D01*
X63909Y-45087D01*
X66912Y-42084D01*
X67400Y-42084D01*
X67492Y-42046D01*
X67562Y-41976D01*
X67600Y-41885D01*
X67600Y-41786D01*
X67600Y-41186D01*
X67562Y-41094D01*
X67492Y-41024D01*
X67401Y-40986D01*
X67341Y-40986D01*
X67341Y-39098D01*
X67340Y-39097D01*
X67319Y-38987D01*
X67318Y-38986D01*
X67256Y-38893D01*
X67255Y-38892D01*
X66629Y-38266D01*
X66629Y-37910D01*
X66630Y-37913D01*
X66784Y-38067D01*
X66986Y-38151D01*
X67204Y-38151D01*
X67510Y-38151D01*
X67712Y-38067D01*
X67866Y-37913D01*
X67950Y-37711D01*
X67950Y-45344D01*
X52294Y-45344D01*
X52294Y-19616D01*
X68769Y-19616D01*
X68769Y-45344D01*
X68769Y-45344D01*
G37*
G54D19*
X68769Y-45344D02*
X67950Y-45344D01*
X67950Y-37711D01*
X67950Y-37493D01*
X67866Y-37291D01*
X67712Y-37137D01*
X67632Y-37103D01*
X67798Y-36984D01*
X67913Y-36798D01*
X67930Y-36739D01*
X67930Y-36465D01*
X67913Y-36406D01*
X67798Y-36220D01*
X67634Y-36102D01*
X67798Y-35984D01*
X67913Y-35798D01*
X67930Y-35739D01*
X67930Y-35465D01*
X67913Y-35406D01*
X67798Y-35220D01*
X67634Y-35102D01*
X67798Y-34984D01*
X67913Y-34798D01*
X67930Y-34739D01*
X67930Y-34465D01*
X67913Y-34406D01*
X67798Y-34220D01*
X67634Y-34102D01*
X67798Y-33984D01*
X67913Y-33798D01*
X67930Y-33739D01*
X67883Y-33652D01*
X67298Y-33652D01*
X67298Y-34042D01*
X67298Y-34162D01*
X67298Y-34552D01*
X67883Y-34552D01*
X67930Y-34465D01*
X67930Y-34739D01*
X67883Y-34652D01*
X67298Y-34652D01*
X67298Y-35042D01*
X67298Y-35162D01*
X67298Y-35552D01*
X67883Y-35552D01*
X67930Y-35465D01*
X67930Y-35739D01*
X67883Y-35652D01*
X67298Y-35652D01*
X67298Y-36042D01*
X67298Y-36162D01*
X67298Y-36552D01*
X67883Y-36552D01*
X67930Y-36465D01*
X67930Y-36739D01*
X67883Y-36652D01*
X67348Y-36652D01*
X67298Y-36652D01*
X67198Y-36652D01*
X67198Y-36552D01*
X67198Y-36502D01*
X67198Y-36162D01*
X67198Y-36042D01*
X67198Y-35702D01*
X67198Y-35652D01*
X67198Y-35552D01*
X67198Y-35502D01*
X67198Y-35162D01*
X67198Y-35042D01*
X67198Y-34702D01*
X67198Y-34652D01*
X67198Y-34552D01*
X67198Y-34502D01*
X67198Y-34162D01*
X67198Y-34042D01*
X67198Y-33702D01*
X67198Y-33652D01*
X67198Y-33552D01*
X67298Y-33552D01*
X67348Y-33552D01*
X67883Y-33552D01*
X67930Y-33465D01*
X67913Y-33406D01*
X67798Y-33220D01*
X67632Y-33100D01*
X67712Y-33067D01*
X67866Y-32913D01*
X67950Y-32711D01*
X67950Y-32493D01*
X67866Y-32291D01*
X67712Y-32137D01*
X67627Y-32102D01*
X67712Y-32067D01*
X67866Y-31913D01*
X67950Y-31711D01*
X67950Y-31493D01*
X67866Y-31291D01*
X67712Y-31137D01*
X67627Y-31102D01*
X67712Y-31067D01*
X67866Y-30913D01*
X67950Y-30711D01*
X67950Y-30493D01*
X67866Y-30291D01*
X67712Y-30137D01*
X67627Y-30102D01*
X67712Y-30067D01*
X67866Y-29913D01*
X67950Y-29711D01*
X67950Y-29493D01*
X67866Y-29291D01*
X67712Y-29137D01*
X67627Y-29102D01*
X67712Y-29067D01*
X67866Y-28913D01*
X67950Y-28711D01*
X67950Y-28493D01*
X67866Y-28291D01*
X67712Y-28137D01*
X67627Y-28102D01*
X67712Y-28067D01*
X67866Y-27913D01*
X67950Y-27711D01*
X67950Y-27493D01*
X67866Y-27291D01*
X67712Y-27137D01*
X67627Y-27102D01*
X67712Y-27067D01*
X67866Y-26913D01*
X67950Y-26711D01*
X67950Y-26493D01*
X67866Y-26291D01*
X67712Y-26137D01*
X67627Y-26102D01*
X67712Y-26067D01*
X67866Y-25913D01*
X67950Y-25711D01*
X67950Y-25493D01*
X67866Y-25291D01*
X67712Y-25137D01*
X67627Y-25102D01*
X67712Y-25067D01*
X67866Y-24913D01*
X67950Y-24711D01*
X67950Y-24493D01*
X67866Y-24291D01*
X67712Y-24137D01*
X67510Y-24053D01*
X67292Y-24053D01*
X66986Y-24053D01*
X66784Y-24137D01*
X66630Y-24291D01*
X66546Y-24493D01*
X66546Y-24711D01*
X66630Y-24913D01*
X66784Y-25067D01*
X66868Y-25102D01*
X66784Y-25137D01*
X66630Y-25291D01*
X66546Y-25493D01*
X66546Y-25711D01*
X66630Y-25913D01*
X66784Y-26067D01*
X66868Y-26102D01*
X66784Y-26137D01*
X66630Y-26291D01*
X66546Y-26493D01*
X66546Y-26711D01*
X66630Y-26913D01*
X66784Y-27067D01*
X66868Y-27102D01*
X66784Y-27137D01*
X66630Y-27291D01*
X66546Y-27493D01*
X66546Y-27711D01*
X66630Y-27913D01*
X66784Y-28067D01*
X66868Y-28102D01*
X66784Y-28137D01*
X66630Y-28291D01*
X66546Y-28493D01*
X66546Y-28711D01*
X66630Y-28913D01*
X66784Y-29067D01*
X66868Y-29102D01*
X66784Y-29137D01*
X66630Y-29291D01*
X66546Y-29493D01*
X66546Y-29711D01*
X66630Y-29913D01*
X66784Y-30067D01*
X66868Y-30102D01*
X66784Y-30137D01*
X66630Y-30291D01*
X66546Y-30493D01*
X66546Y-30711D01*
X66630Y-30913D01*
X66784Y-31067D01*
X66868Y-31102D01*
X66784Y-31137D01*
X66630Y-31291D01*
X66546Y-31493D01*
X66546Y-31711D01*
X66630Y-31913D01*
X66784Y-32067D01*
X66868Y-32102D01*
X66784Y-32137D01*
X66630Y-32291D01*
X66546Y-32493D01*
X66546Y-32711D01*
X66599Y-32840D01*
X66134Y-33306D01*
X66071Y-33400D01*
X66049Y-33511D01*
X66049Y-38386D01*
X66071Y-38497D01*
X66134Y-38591D01*
X66761Y-39218D01*
X66761Y-40834D01*
X65878Y-39952D01*
X65784Y-39889D01*
X65673Y-39867D01*
X64950Y-39867D01*
X64950Y-37711D01*
X64950Y-37493D01*
X64866Y-37291D01*
X64712Y-37137D01*
X64627Y-37102D01*
X64712Y-37067D01*
X64866Y-36913D01*
X64950Y-36711D01*
X64950Y-36493D01*
X64866Y-36291D01*
X64712Y-36137D01*
X64627Y-36102D01*
X64712Y-36067D01*
X64866Y-35913D01*
X64950Y-35711D01*
X64950Y-35493D01*
X64866Y-35291D01*
X64712Y-35137D01*
X64627Y-35102D01*
X64712Y-35067D01*
X64866Y-34913D01*
X64950Y-34711D01*
X64950Y-34493D01*
X64866Y-34291D01*
X64712Y-34137D01*
X64627Y-34102D01*
X64712Y-34067D01*
X64866Y-33913D01*
X64950Y-33711D01*
X64950Y-33493D01*
X64866Y-33291D01*
X64712Y-33137D01*
X64627Y-33102D01*
X64712Y-33067D01*
X64866Y-32913D01*
X64950Y-32711D01*
X64950Y-32493D01*
X64950Y-30711D01*
X64950Y-30493D01*
X64866Y-30291D01*
X64712Y-30137D01*
X64627Y-30102D01*
X64712Y-30067D01*
X64866Y-29913D01*
X64950Y-29711D01*
X64950Y-29493D01*
X64866Y-29291D01*
X64712Y-29137D01*
X64627Y-29102D01*
X64712Y-29067D01*
X64866Y-28913D01*
X64950Y-28711D01*
X64950Y-28493D01*
X64866Y-28291D01*
X64712Y-28137D01*
X64627Y-28102D01*
X64712Y-28067D01*
X64866Y-27913D01*
X64950Y-27711D01*
X64950Y-27493D01*
X64866Y-27291D01*
X64712Y-27137D01*
X64627Y-27102D01*
X64712Y-27067D01*
X64866Y-26913D01*
X64950Y-26711D01*
X64950Y-26493D01*
X64866Y-26291D01*
X64712Y-26137D01*
X64627Y-26102D01*
X64712Y-26067D01*
X64866Y-25913D01*
X64950Y-25711D01*
X64950Y-25493D01*
X64866Y-25291D01*
X64736Y-25161D01*
X64748Y-25161D01*
X64839Y-25123D01*
X64909Y-25053D01*
X64947Y-24961D01*
X64948Y-24714D01*
X64948Y-24490D01*
X64947Y-24243D01*
X64909Y-24151D01*
X64839Y-24081D01*
X64748Y-24043D01*
X64649Y-24043D01*
X64360Y-24042D01*
X64298Y-24104D01*
X64298Y-24552D01*
X64886Y-24552D01*
X64948Y-24490D01*
X64948Y-24714D01*
X64886Y-24652D01*
X64348Y-24652D01*
X64298Y-24652D01*
X64198Y-24652D01*
X64198Y-24552D01*
X64198Y-24104D01*
X64136Y-24042D01*
X63847Y-24043D01*
X63748Y-24043D01*
X63657Y-24081D01*
X63587Y-24151D01*
X63549Y-24243D01*
X63548Y-24490D01*
X63610Y-24552D01*
X64198Y-24552D01*
X64198Y-24652D01*
X64148Y-24652D01*
X63610Y-24652D01*
X63548Y-24714D01*
X63549Y-24961D01*
X63587Y-25053D01*
X63657Y-25123D01*
X63748Y-25161D01*
X63760Y-25161D01*
X63630Y-25291D01*
X63546Y-25493D01*
X63546Y-25711D01*
X63630Y-25913D01*
X63784Y-26067D01*
X63868Y-26102D01*
X63784Y-26137D01*
X63630Y-26291D01*
X63546Y-26493D01*
X63546Y-26711D01*
X63630Y-26913D01*
X63784Y-27067D01*
X63868Y-27102D01*
X63784Y-27137D01*
X63630Y-27291D01*
X63546Y-27493D01*
X63546Y-27711D01*
X63630Y-27913D01*
X63784Y-28067D01*
X63868Y-28102D01*
X63784Y-28137D01*
X63630Y-28291D01*
X63546Y-28493D01*
X63546Y-28711D01*
X63630Y-28913D01*
X63784Y-29067D01*
X63868Y-29102D01*
X63784Y-29137D01*
X63630Y-29291D01*
X63546Y-29493D01*
X63546Y-29711D01*
X63630Y-29913D01*
X63784Y-30067D01*
X63868Y-30102D01*
X63784Y-30137D01*
X63630Y-30291D01*
X63546Y-30493D01*
X63546Y-30711D01*
X63630Y-30913D01*
X63784Y-31067D01*
X63863Y-31100D01*
X63698Y-31220D01*
X63583Y-31406D01*
X63566Y-31465D01*
X63613Y-31552D01*
X64148Y-31552D01*
X64198Y-31552D01*
X64298Y-31552D01*
X64348Y-31552D01*
X64883Y-31552D01*
X64930Y-31465D01*
X64913Y-31406D01*
X64798Y-31220D01*
X64632Y-31100D01*
X64712Y-31067D01*
X64866Y-30913D01*
X64950Y-30711D01*
X64950Y-32493D01*
X64866Y-32291D01*
X64712Y-32137D01*
X64632Y-32103D01*
X64798Y-31984D01*
X64913Y-31798D01*
X64930Y-31739D01*
X64883Y-31652D01*
X64348Y-31652D01*
X64298Y-31652D01*
X64198Y-31652D01*
X64148Y-31652D01*
X63613Y-31652D01*
X63566Y-31739D01*
X63583Y-31798D01*
X63698Y-31984D01*
X63863Y-32103D01*
X63784Y-32137D01*
X63630Y-32291D01*
X63627Y-32297D01*
X62921Y-32297D01*
X62921Y-31661D01*
X62910Y-31457D01*
X62854Y-31320D01*
X62763Y-31297D01*
X62692Y-31368D01*
X62692Y-31226D01*
X62669Y-31135D01*
X62476Y-31068D01*
X62272Y-31079D01*
X62135Y-31135D01*
X62112Y-31226D01*
X62402Y-31516D01*
X62692Y-31226D01*
X62692Y-31368D01*
X62473Y-31587D01*
X62763Y-31877D01*
X62854Y-31854D01*
X62921Y-31661D01*
X62921Y-32297D01*
X62849Y-32297D01*
X62847Y-32290D01*
X62700Y-32142D01*
X62559Y-32083D01*
X62669Y-32039D01*
X62692Y-31948D01*
X62402Y-31658D01*
X62331Y-31729D01*
X62331Y-31587D01*
X62041Y-31297D01*
X61950Y-31320D01*
X61883Y-31513D01*
X61894Y-31717D01*
X61950Y-31854D01*
X62041Y-31877D01*
X62331Y-31587D01*
X62331Y-31729D01*
X62112Y-31948D01*
X62135Y-32039D01*
X62253Y-32080D01*
X62105Y-32142D01*
X61957Y-32289D01*
X61877Y-32482D01*
X61877Y-32691D01*
X61957Y-32884D01*
X62104Y-33032D01*
X62112Y-33035D01*
X62112Y-33879D01*
X62105Y-33882D01*
X61957Y-34029D01*
X61877Y-34222D01*
X61877Y-34431D01*
X61957Y-34624D01*
X62104Y-34772D01*
X62297Y-34852D01*
X62506Y-34852D01*
X62699Y-34772D01*
X62847Y-34625D01*
X62927Y-34432D01*
X62927Y-34223D01*
X62847Y-34030D01*
X62700Y-33882D01*
X62692Y-33878D01*
X62692Y-33034D01*
X62699Y-33032D01*
X62847Y-32885D01*
X62850Y-32877D01*
X63615Y-32877D01*
X63630Y-32913D01*
X63784Y-33067D01*
X63868Y-33102D01*
X63784Y-33137D01*
X63630Y-33291D01*
X63546Y-33493D01*
X63546Y-33711D01*
X63630Y-33913D01*
X63784Y-34067D01*
X63868Y-34102D01*
X63784Y-34137D01*
X63630Y-34291D01*
X63546Y-34493D01*
X63546Y-34711D01*
X63630Y-34913D01*
X63784Y-35067D01*
X63868Y-35102D01*
X63784Y-35137D01*
X63630Y-35291D01*
X63546Y-35493D01*
X63546Y-35711D01*
X63630Y-35913D01*
X63784Y-36067D01*
X63868Y-36102D01*
X63784Y-36137D01*
X63630Y-36291D01*
X63546Y-36493D01*
X63546Y-36711D01*
X63630Y-36913D01*
X63784Y-37067D01*
X63868Y-37102D01*
X63784Y-37137D01*
X63630Y-37291D01*
X63546Y-37493D01*
X63546Y-37711D01*
X63630Y-37913D01*
X63784Y-38067D01*
X63986Y-38151D01*
X64204Y-38151D01*
X64510Y-38151D01*
X64712Y-38067D01*
X64866Y-37913D01*
X64950Y-37711D01*
X64950Y-39867D01*
X64490Y-39867D01*
X62692Y-38069D01*
X62692Y-37774D01*
X62699Y-37772D01*
X62847Y-37625D01*
X62927Y-37432D01*
X62927Y-37223D01*
X62847Y-37030D01*
X62700Y-36882D01*
X62507Y-36802D01*
X62298Y-36802D01*
X62105Y-36882D01*
X61957Y-37029D01*
X61877Y-37222D01*
X61877Y-37431D01*
X61957Y-37624D01*
X62104Y-37772D01*
X62112Y-37775D01*
X62112Y-38189D01*
X62134Y-38300D01*
X62197Y-38394D01*
X64165Y-40362D01*
X64259Y-40425D01*
X64370Y-40447D01*
X65552Y-40447D01*
X66099Y-40993D01*
X65917Y-41003D01*
X65770Y-41063D01*
X65743Y-41157D01*
X66016Y-41429D01*
X66051Y-41464D01*
X66122Y-41535D01*
X66051Y-41606D01*
X65980Y-41676D01*
X65980Y-41535D01*
X65673Y-41227D01*
X65579Y-41254D01*
X65555Y-41319D01*
X65516Y-41224D01*
X65362Y-41070D01*
X65160Y-40986D01*
X64942Y-40986D01*
X64740Y-41070D01*
X64586Y-41224D01*
X64551Y-41308D01*
X64516Y-41224D01*
X64362Y-41070D01*
X64160Y-40986D01*
X63942Y-40986D01*
X63740Y-41070D01*
X63586Y-41224D01*
X63502Y-41426D01*
X63502Y-41644D01*
X63586Y-41846D01*
X63740Y-42000D01*
X63942Y-42084D01*
X64160Y-42084D01*
X64362Y-42000D01*
X64516Y-41846D01*
X64551Y-41761D01*
X64586Y-41846D01*
X64740Y-42000D01*
X64942Y-42084D01*
X65160Y-42084D01*
X65362Y-42000D01*
X65516Y-41846D01*
X65553Y-41754D01*
X65579Y-41816D01*
X65673Y-41843D01*
X65980Y-41535D01*
X65980Y-41676D01*
X65743Y-41913D01*
X65770Y-42007D01*
X65972Y-42078D01*
X66104Y-42071D01*
X63584Y-44592D01*
X60090Y-44592D01*
X60090Y-44168D01*
X60090Y-40822D01*
X60090Y-38066D01*
X60090Y-35310D01*
X60090Y-32554D01*
X60090Y-29798D01*
X60090Y-27043D01*
X60090Y-24287D01*
X60090Y-21531D01*
X60079Y-21327D01*
X60023Y-21190D01*
X59932Y-21167D01*
X59861Y-21238D01*
X59861Y-21096D01*
X59838Y-21005D01*
X59645Y-20938D01*
X59441Y-20949D01*
X59304Y-21005D01*
X59281Y-21096D01*
X59571Y-21386D01*
X59861Y-21096D01*
X59861Y-21238D01*
X59642Y-21457D01*
X59932Y-21747D01*
X60023Y-21724D01*
X60090Y-21531D01*
X60090Y-24287D01*
X60079Y-24083D01*
X60023Y-23946D01*
X59932Y-23923D01*
X59861Y-23994D01*
X59861Y-23852D01*
X59861Y-21818D01*
X59571Y-21528D01*
X59500Y-21599D01*
X59500Y-21457D01*
X59210Y-21167D01*
X59119Y-21190D01*
X59052Y-21383D01*
X59063Y-21587D01*
X59119Y-21724D01*
X59210Y-21747D01*
X59500Y-21457D01*
X59500Y-21599D01*
X59281Y-21818D01*
X59304Y-21909D01*
X59497Y-21976D01*
X59701Y-21965D01*
X59838Y-21909D01*
X59861Y-21818D01*
X59861Y-23852D01*
X59838Y-23761D01*
X59645Y-23694D01*
X59441Y-23705D01*
X59304Y-23761D01*
X59281Y-23852D01*
X59571Y-24142D01*
X59861Y-23852D01*
X59861Y-23994D01*
X59642Y-24213D01*
X59932Y-24503D01*
X60023Y-24480D01*
X60090Y-24287D01*
X60090Y-27043D01*
X60079Y-26839D01*
X60023Y-26702D01*
X59932Y-26679D01*
X59861Y-26750D01*
X59861Y-26608D01*
X59861Y-24574D01*
X59571Y-24284D01*
X59500Y-24355D01*
X59500Y-24213D01*
X59210Y-23923D01*
X59119Y-23946D01*
X59052Y-24139D01*
X59063Y-24343D01*
X59119Y-24480D01*
X59210Y-24503D01*
X59500Y-24213D01*
X59500Y-24355D01*
X59281Y-24574D01*
X59304Y-24665D01*
X59497Y-24732D01*
X59701Y-24721D01*
X59838Y-24665D01*
X59861Y-24574D01*
X59861Y-26608D01*
X59838Y-26517D01*
X59645Y-26450D01*
X59441Y-26461D01*
X59304Y-26517D01*
X59281Y-26608D01*
X59571Y-26898D01*
X59861Y-26608D01*
X59861Y-26750D01*
X59642Y-26969D01*
X59932Y-27259D01*
X60023Y-27236D01*
X60090Y-27043D01*
X60090Y-29798D01*
X60079Y-29594D01*
X60023Y-29457D01*
X59932Y-29434D01*
X59861Y-29505D01*
X59861Y-29363D01*
X59861Y-27330D01*
X59571Y-27040D01*
X59500Y-27111D01*
X59500Y-26969D01*
X59210Y-26679D01*
X59119Y-26702D01*
X59052Y-26895D01*
X59063Y-27099D01*
X59119Y-27236D01*
X59210Y-27259D01*
X59500Y-26969D01*
X59500Y-27111D01*
X59281Y-27330D01*
X59304Y-27421D01*
X59497Y-27488D01*
X59701Y-27477D01*
X59838Y-27421D01*
X59861Y-27330D01*
X59861Y-29363D01*
X59838Y-29272D01*
X59645Y-29205D01*
X59441Y-29216D01*
X59304Y-29272D01*
X59281Y-29363D01*
X59571Y-29653D01*
X59861Y-29363D01*
X59861Y-29505D01*
X59642Y-29724D01*
X59932Y-30014D01*
X60023Y-29991D01*
X60090Y-29798D01*
X60090Y-32554D01*
X60079Y-32350D01*
X60023Y-32213D01*
X59932Y-32190D01*
X59861Y-32261D01*
X59861Y-32119D01*
X59861Y-30085D01*
X59571Y-29795D01*
X59500Y-29866D01*
X59500Y-29724D01*
X59210Y-29434D01*
X59119Y-29457D01*
X59052Y-29650D01*
X59063Y-29854D01*
X59119Y-29991D01*
X59210Y-30014D01*
X59500Y-29724D01*
X59500Y-29866D01*
X59281Y-30085D01*
X59304Y-30176D01*
X59497Y-30243D01*
X59701Y-30232D01*
X59838Y-30176D01*
X59861Y-30085D01*
X59861Y-32119D01*
X59838Y-32028D01*
X59645Y-31961D01*
X59441Y-31972D01*
X59304Y-32028D01*
X59281Y-32119D01*
X59571Y-32409D01*
X59861Y-32119D01*
X59861Y-32261D01*
X59642Y-32480D01*
X59932Y-32770D01*
X60023Y-32747D01*
X60090Y-32554D01*
X60090Y-35310D01*
X60079Y-35106D01*
X60023Y-34969D01*
X59932Y-34946D01*
X59861Y-35017D01*
X59861Y-34875D01*
X59861Y-32841D01*
X59571Y-32551D01*
X59500Y-32622D01*
X59500Y-32480D01*
X59210Y-32190D01*
X59119Y-32213D01*
X59052Y-32406D01*
X59063Y-32610D01*
X59119Y-32747D01*
X59210Y-32770D01*
X59500Y-32480D01*
X59500Y-32622D01*
X59281Y-32841D01*
X59304Y-32932D01*
X59497Y-32999D01*
X59701Y-32988D01*
X59838Y-32932D01*
X59861Y-32841D01*
X59861Y-34875D01*
X59838Y-34784D01*
X59645Y-34717D01*
X59441Y-34728D01*
X59304Y-34784D01*
X59281Y-34875D01*
X59571Y-35165D01*
X59861Y-34875D01*
X59861Y-35017D01*
X59642Y-35236D01*
X59932Y-35526D01*
X60023Y-35503D01*
X60090Y-35310D01*
X60090Y-38066D01*
X60079Y-37862D01*
X60023Y-37725D01*
X59932Y-37702D01*
X59861Y-37773D01*
X59861Y-37631D01*
X59861Y-35597D01*
X59571Y-35307D01*
X59500Y-35378D01*
X59500Y-35236D01*
X59210Y-34946D01*
X59119Y-34969D01*
X59052Y-35162D01*
X59063Y-35366D01*
X59119Y-35503D01*
X59210Y-35526D01*
X59500Y-35236D01*
X59500Y-35378D01*
X59281Y-35597D01*
X59304Y-35688D01*
X59497Y-35755D01*
X59701Y-35744D01*
X59838Y-35688D01*
X59861Y-35597D01*
X59861Y-37631D01*
X59838Y-37540D01*
X59645Y-37473D01*
X59441Y-37484D01*
X59304Y-37540D01*
X59281Y-37631D01*
X59571Y-37921D01*
X59861Y-37631D01*
X59861Y-37773D01*
X59642Y-37992D01*
X59932Y-38282D01*
X60023Y-38259D01*
X60090Y-38066D01*
X60090Y-40822D01*
X60079Y-40618D01*
X60023Y-40481D01*
X59932Y-40458D01*
X59861Y-40529D01*
X59861Y-40387D01*
X59861Y-38353D01*
X59571Y-38063D01*
X59500Y-38134D01*
X59500Y-37992D01*
X59210Y-37702D01*
X59119Y-37725D01*
X59052Y-37918D01*
X59063Y-38122D01*
X59119Y-38259D01*
X59210Y-38282D01*
X59500Y-37992D01*
X59500Y-38134D01*
X59281Y-38353D01*
X59304Y-38444D01*
X59497Y-38511D01*
X59701Y-38500D01*
X59838Y-38444D01*
X59861Y-38353D01*
X59861Y-40387D01*
X59838Y-40296D01*
X59645Y-40229D01*
X59441Y-40240D01*
X59304Y-40296D01*
X59281Y-40387D01*
X59571Y-40677D01*
X59861Y-40387D01*
X59861Y-40529D01*
X59642Y-40748D01*
X59932Y-41038D01*
X60023Y-41015D01*
X60090Y-40822D01*
X60090Y-44168D01*
X60079Y-43964D01*
X60023Y-43827D01*
X59932Y-43804D01*
X59861Y-43875D01*
X59861Y-43733D01*
X59861Y-41109D01*
X59571Y-40819D01*
X59500Y-40890D01*
X59500Y-40748D01*
X59210Y-40458D01*
X59119Y-40481D01*
X59052Y-40674D01*
X59063Y-40878D01*
X59119Y-41015D01*
X59210Y-41038D01*
X59500Y-40748D01*
X59500Y-40890D01*
X59281Y-41109D01*
X59304Y-41200D01*
X59497Y-41267D01*
X59701Y-41256D01*
X59838Y-41200D01*
X59861Y-41109D01*
X59861Y-43733D01*
X59838Y-43642D01*
X59645Y-43575D01*
X59441Y-43586D01*
X59304Y-43642D01*
X59281Y-43733D01*
X59571Y-44023D01*
X59861Y-43733D01*
X59861Y-43875D01*
X59642Y-44094D01*
X59932Y-44384D01*
X60023Y-44361D01*
X60090Y-44168D01*
X60090Y-44592D01*
X59725Y-44592D01*
X59838Y-44546D01*
X59861Y-44455D01*
X59571Y-44165D01*
X59500Y-44236D01*
X59500Y-44094D01*
X59210Y-43804D01*
X59119Y-43827D01*
X59052Y-44020D01*
X59063Y-44224D01*
X59119Y-44361D01*
X59210Y-44384D01*
X59500Y-44094D01*
X59500Y-44236D01*
X59281Y-44455D01*
X59304Y-44546D01*
X59436Y-44592D01*
X56740Y-44592D01*
X56868Y-44539D01*
X57016Y-44392D01*
X57096Y-44199D01*
X57096Y-43990D01*
X57096Y-40853D01*
X57096Y-40644D01*
X57096Y-38097D01*
X57096Y-37888D01*
X57096Y-35341D01*
X57096Y-35132D01*
X57096Y-32585D01*
X57096Y-32376D01*
X57096Y-29829D01*
X57096Y-29620D01*
X57096Y-27074D01*
X57096Y-26865D01*
X57096Y-24318D01*
X57096Y-24109D01*
X57096Y-21562D01*
X57096Y-21353D01*
X57016Y-21160D01*
X56869Y-21012D01*
X56676Y-20932D01*
X56467Y-20932D01*
X56274Y-21012D01*
X56126Y-21159D01*
X56122Y-21167D01*
X55042Y-21167D01*
X55027Y-21129D01*
X54864Y-20966D01*
X54651Y-20877D01*
X54420Y-20877D01*
X54207Y-20965D01*
X54044Y-21128D01*
X54035Y-21148D01*
X54027Y-21129D01*
X53864Y-20966D01*
X53651Y-20877D01*
X53420Y-20877D01*
X53207Y-20965D01*
X53044Y-21128D01*
X52955Y-21341D01*
X52955Y-21572D01*
X53043Y-21785D01*
X53206Y-21948D01*
X53419Y-22037D01*
X53650Y-22037D01*
X53863Y-21949D01*
X54026Y-21786D01*
X54034Y-21765D01*
X54043Y-21785D01*
X54206Y-21948D01*
X54419Y-22037D01*
X54650Y-22037D01*
X54863Y-21949D01*
X55026Y-21786D01*
X55042Y-21747D01*
X56123Y-21747D01*
X56126Y-21754D01*
X56273Y-21902D01*
X56466Y-21982D01*
X56675Y-21982D01*
X56868Y-21902D01*
X57016Y-21755D01*
X57096Y-21562D01*
X57096Y-24109D01*
X57016Y-23916D01*
X56869Y-23768D01*
X56676Y-23688D01*
X56467Y-23688D01*
X56274Y-23768D01*
X56126Y-23915D01*
X56122Y-23923D01*
X55042Y-23923D01*
X55027Y-23885D01*
X54864Y-23722D01*
X54651Y-23633D01*
X54420Y-23633D01*
X54207Y-23721D01*
X54044Y-23884D01*
X54035Y-23904D01*
X54027Y-23885D01*
X53864Y-23722D01*
X53651Y-23633D01*
X53420Y-23633D01*
X53207Y-23721D01*
X53044Y-23884D01*
X52955Y-24097D01*
X52955Y-24328D01*
X53043Y-24541D01*
X53206Y-24704D01*
X53419Y-24793D01*
X53650Y-24793D01*
X53863Y-24705D01*
X54026Y-24542D01*
X54034Y-24521D01*
X54043Y-24541D01*
X54206Y-24704D01*
X54419Y-24793D01*
X54650Y-24793D01*
X54863Y-24705D01*
X55026Y-24542D01*
X55042Y-24503D01*
X56123Y-24503D01*
X56126Y-24510D01*
X56273Y-24658D01*
X56466Y-24738D01*
X56675Y-24738D01*
X56868Y-24658D01*
X57016Y-24511D01*
X57096Y-24318D01*
X57096Y-26865D01*
X57016Y-26672D01*
X56869Y-26524D01*
X56676Y-26444D01*
X56467Y-26444D01*
X56274Y-26524D01*
X56126Y-26671D01*
X56122Y-26679D01*
X55042Y-26679D01*
X55027Y-26641D01*
X54864Y-26478D01*
X54651Y-26389D01*
X54420Y-26389D01*
X54207Y-26477D01*
X54044Y-26640D01*
X54035Y-26660D01*
X54027Y-26641D01*
X53864Y-26478D01*
X53651Y-26389D01*
X53420Y-26389D01*
X53207Y-26477D01*
X53044Y-26640D01*
X52955Y-26853D01*
X52955Y-27084D01*
X53043Y-27297D01*
X53206Y-27460D01*
X53419Y-27549D01*
X53650Y-27549D01*
X53863Y-27461D01*
X54026Y-27298D01*
X54034Y-27277D01*
X54043Y-27297D01*
X54206Y-27460D01*
X54419Y-27549D01*
X54650Y-27549D01*
X54863Y-27461D01*
X55026Y-27298D01*
X55042Y-27259D01*
X56123Y-27259D01*
X56126Y-27266D01*
X56273Y-27414D01*
X56466Y-27494D01*
X56675Y-27494D01*
X56868Y-27414D01*
X57016Y-27267D01*
X57096Y-27074D01*
X57096Y-29620D01*
X57016Y-29427D01*
X56869Y-29279D01*
X56676Y-29199D01*
X56467Y-29199D01*
X56274Y-29279D01*
X56126Y-29426D01*
X56122Y-29434D01*
X55042Y-29434D01*
X55027Y-29396D01*
X54864Y-29233D01*
X54651Y-29144D01*
X54420Y-29144D01*
X54207Y-29232D01*
X54044Y-29395D01*
X54035Y-29415D01*
X54027Y-29396D01*
X53864Y-29233D01*
X53651Y-29144D01*
X53420Y-29144D01*
X53207Y-29232D01*
X53044Y-29395D01*
X52955Y-29608D01*
X52955Y-29839D01*
X53043Y-30052D01*
X53206Y-30215D01*
X53419Y-30304D01*
X53650Y-30304D01*
X53863Y-30216D01*
X54026Y-30053D01*
X54034Y-30032D01*
X54043Y-30052D01*
X54206Y-30215D01*
X54419Y-30304D01*
X54650Y-30304D01*
X54863Y-30216D01*
X55026Y-30053D01*
X55042Y-30014D01*
X56123Y-30014D01*
X56126Y-30021D01*
X56273Y-30169D01*
X56466Y-30249D01*
X56675Y-30249D01*
X56868Y-30169D01*
X57016Y-30022D01*
X57096Y-29829D01*
X57096Y-32376D01*
X57016Y-32183D01*
X56869Y-32035D01*
X56676Y-31955D01*
X56467Y-31955D01*
X56274Y-32035D01*
X56126Y-32182D01*
X56122Y-32190D01*
X55042Y-32190D01*
X55027Y-32152D01*
X54864Y-31989D01*
X54651Y-31900D01*
X54420Y-31900D01*
X54207Y-31988D01*
X54044Y-32151D01*
X54035Y-32171D01*
X54027Y-32152D01*
X53864Y-31989D01*
X53651Y-31900D01*
X53420Y-31900D01*
X53207Y-31988D01*
X53044Y-32151D01*
X52955Y-32364D01*
X52955Y-32595D01*
X53043Y-32808D01*
X53206Y-32971D01*
X53419Y-33060D01*
X53650Y-33060D01*
X53863Y-32972D01*
X54026Y-32809D01*
X54034Y-32788D01*
X54043Y-32808D01*
X54206Y-32971D01*
X54419Y-33060D01*
X54650Y-33060D01*
X54863Y-32972D01*
X55026Y-32809D01*
X55042Y-32770D01*
X56123Y-32770D01*
X56126Y-32777D01*
X56273Y-32925D01*
X56466Y-33005D01*
X56675Y-33005D01*
X56868Y-32925D01*
X57016Y-32778D01*
X57096Y-32585D01*
X57096Y-35132D01*
X57016Y-34939D01*
X56869Y-34791D01*
X56676Y-34711D01*
X56467Y-34711D01*
X56274Y-34791D01*
X56126Y-34938D01*
X56122Y-34946D01*
X55042Y-34946D01*
X55027Y-34908D01*
X54864Y-34745D01*
X54651Y-34656D01*
X54420Y-34656D01*
X54207Y-34744D01*
X54044Y-34907D01*
X54035Y-34927D01*
X54027Y-34908D01*
X53864Y-34745D01*
X53651Y-34656D01*
X53420Y-34656D01*
X53207Y-34744D01*
X53044Y-34907D01*
X52955Y-35120D01*
X52955Y-35351D01*
X53043Y-35564D01*
X53206Y-35727D01*
X53419Y-35816D01*
X53650Y-35816D01*
X53863Y-35728D01*
X54026Y-35565D01*
X54034Y-35544D01*
X54043Y-35564D01*
X54206Y-35727D01*
X54419Y-35816D01*
X54650Y-35816D01*
X54863Y-35728D01*
X55026Y-35565D01*
X55042Y-35526D01*
X56123Y-35526D01*
X56126Y-35533D01*
X56273Y-35681D01*
X56466Y-35761D01*
X56675Y-35761D01*
X56868Y-35681D01*
X57016Y-35534D01*
X57096Y-35341D01*
X57096Y-37888D01*
X57016Y-37695D01*
X56869Y-37547D01*
X56676Y-37467D01*
X56467Y-37467D01*
X56274Y-37547D01*
X56126Y-37694D01*
X56122Y-37702D01*
X55042Y-37702D01*
X55027Y-37664D01*
X54864Y-37501D01*
X54651Y-37412D01*
X54420Y-37412D01*
X54207Y-37500D01*
X54044Y-37663D01*
X54035Y-37683D01*
X54027Y-37664D01*
X53864Y-37501D01*
X53651Y-37412D01*
X53420Y-37412D01*
X53207Y-37500D01*
X53044Y-37663D01*
X52955Y-37876D01*
X52955Y-38107D01*
X53043Y-38320D01*
X53206Y-38483D01*
X53419Y-38572D01*
X53650Y-38572D01*
X53863Y-38484D01*
X54026Y-38321D01*
X54034Y-38300D01*
X54043Y-38320D01*
X54206Y-38483D01*
X54419Y-38572D01*
X54650Y-38572D01*
X54863Y-38484D01*
X55026Y-38321D01*
X55042Y-38282D01*
X56123Y-38282D01*
X56126Y-38289D01*
X56273Y-38437D01*
X56466Y-38517D01*
X56675Y-38517D01*
X56868Y-38437D01*
X57016Y-38290D01*
X57096Y-38097D01*
X57096Y-40644D01*
X57016Y-40451D01*
X56869Y-40303D01*
X56676Y-40223D01*
X56467Y-40223D01*
X56274Y-40303D01*
X56126Y-40450D01*
X56122Y-40458D01*
X55042Y-40458D01*
X55027Y-40420D01*
X54864Y-40257D01*
X54651Y-40168D01*
X54420Y-40168D01*
X54207Y-40256D01*
X54044Y-40419D01*
X54035Y-40439D01*
X54027Y-40420D01*
X53864Y-40257D01*
X53651Y-40168D01*
X53420Y-40168D01*
X53207Y-40256D01*
X53044Y-40419D01*
X52955Y-40632D01*
X52955Y-40863D01*
X53043Y-41076D01*
X53206Y-41239D01*
X53419Y-41328D01*
X53650Y-41328D01*
X53863Y-41240D01*
X54026Y-41077D01*
X54034Y-41056D01*
X54043Y-41076D01*
X54206Y-41239D01*
X54419Y-41328D01*
X54650Y-41328D01*
X54863Y-41240D01*
X55026Y-41077D01*
X55042Y-41038D01*
X56123Y-41038D01*
X56126Y-41045D01*
X56273Y-41193D01*
X56466Y-41273D01*
X56675Y-41273D01*
X56868Y-41193D01*
X57016Y-41046D01*
X57096Y-40853D01*
X57096Y-43990D01*
X57016Y-43797D01*
X56869Y-43649D01*
X56676Y-43569D01*
X56467Y-43569D01*
X56274Y-43649D01*
X56126Y-43796D01*
X56122Y-43804D01*
X55183Y-43804D01*
X55183Y-43745D01*
X55145Y-43653D01*
X55075Y-43583D01*
X54984Y-43545D01*
X54885Y-43545D01*
X54285Y-43545D01*
X54193Y-43583D01*
X54123Y-43653D01*
X54085Y-43744D01*
X54085Y-43769D01*
X53945Y-43629D01*
X53743Y-43545D01*
X53525Y-43545D01*
X53323Y-43629D01*
X53169Y-43783D01*
X53085Y-43985D01*
X53085Y-44203D01*
X53169Y-44405D01*
X53323Y-44559D01*
X53344Y-44567D01*
X53344Y-44579D01*
X53366Y-44690D01*
X53429Y-44784D01*
X53732Y-45087D01*
X53826Y-45150D01*
X53937Y-45172D01*
X63704Y-45172D01*
X63815Y-45150D01*
X63909Y-45087D01*
X66912Y-42084D01*
X67400Y-42084D01*
X67492Y-42046D01*
X67562Y-41976D01*
X67600Y-41885D01*
X67600Y-41786D01*
X67600Y-41186D01*
X67562Y-41094D01*
X67492Y-41024D01*
X67401Y-40986D01*
X67341Y-40986D01*
X67341Y-39098D01*
X67340Y-39097D01*
X67319Y-38987D01*
X67318Y-38986D01*
X67256Y-38893D01*
X67255Y-38892D01*
X66629Y-38266D01*
X66629Y-37910D01*
X66630Y-37913D01*
X66784Y-38067D01*
X66986Y-38151D01*
X67204Y-38151D01*
X67510Y-38151D01*
X67712Y-38067D01*
X67866Y-37913D01*
X67950Y-37711D01*
X67950Y-45344D01*
X52294Y-45344D01*
X52294Y-19616D01*
X68769Y-19616D01*
X68769Y-45344D01*
M02*
